<svg xmlns="http://www.w3.org/2000/svg" width="36" height="34" fill="none"><path d="M5.795 23.25l-.04-.03c-.04-.023-.074-.055-.1-.092a.32.32 0 0 1-.053-.126c-.016-.1.005-.186.06-.276.616-.292 5.153-2.457 6.274-3.474.3-.263.428-.927.685-2.28l.19-.985c.066-.32.242-.916.425-1.546l.6-2.266c.728-4.4 1.333-9.857 1.34-9.9.098-.948.305-1.912 1.076-1.912.91 0 1.543.57 1.543 1.392l.056 20.992c0 1.503-.57 1.72-1.232 1.974-.372.14-.792.303-1.09.7-.608.813-1.26 1.89-1.89 2.935l-.8 1.328-7.036-6.423z" fill="url(#A)"/><path d="M16.255.615c.765 0 1.278.452 1.278 1.126l.056 21c0 1.32-.422 1.482-1.062 1.727-.404.154-.863.33-1.206.786-.616.823-1.27 1.907-1.902 2.96l-.64 1.055-6.8-6.205c-.024-.02-.05-.043-.08-.06-.024-.013-.03-.026-.03-.04s-.003-.02 0-.03c.877-.417 5.148-2.473 6.25-3.474.353-.32.49-.975.768-2.425l.19-.983c.064-.31.236-.9.42-1.522l.606-2.3c.728-4.41 1.333-9.87 1.34-9.93.122-1.174.364-1.673.8-1.673zm0-.53c-1.055 0-1.248 1.294-1.34 2.15 0 0-.603 5.45-1.336 9.897-.15.9-.87 3.04-1.023 3.804-.327 1.604-.494 2.845-.797 3.12-1.16 1.055-6.27 3.458-6.27 3.458-.25.316-.194.733.128.93l7.27 6.635c.93-1.46 1.942-3.294 2.855-4.516.73-.977 2.375-.266 2.375-2.832l-.056-21c0-.914-.685-1.657-1.806-1.657z" fill="#eda600"/><path d="M13.636 33.707l-13.41-.15.15-10.312 8.43-3.785a.7.7 0 0 1 .962.465c.252.986.84 2.733 2.125 4.486a24.39 24.39 0 0 0 3.331 3.655c.228.204.382.476.44.776s.016.61-.12.884l-3.23 2.484 1.323 1.495z" fill="url(#B)"/><path d="M14.972 3.78s.218-1.373 1.466-1.373 1.334 1.373 1.334 1.373m-3.196 3.454s.274-1.5 1.596-1.5 1.626 1.5 1.626 1.5" stroke="#eda600" stroke-width=".25" stroke-miterlimit="10" stroke-linecap="round" stroke-linejoin="round"/><path opacity=".2" d="M9.025 20.237c.266.996.9 2.826 2.223 4.646 1.233 1.68 2.553 2.98 3.443 3.777a.61.61 0 0 1 .189.566l-3.033 2.213a.8.8 0 0 0-.321.542c-.03.218.034.436.173.606l.25.305-10.91-.122.13-9.002 7.857-3.53zm.066-.837c-.096 0-.19.02-.284.06l-8.43 3.785-.15 10.31 13.41.15-1.325-1.626 3.23-2.354a1.39 1.39 0 0 0-.321-1.66c-.813-.728-2.117-2-3.33-3.655a13.25 13.25 0 0 1-2.125-4.486c-.038-.15-.125-.284-.247-.38s-.273-.147-.428-.147z" fill="#424242"/><path d="M23.044 29.67l-.8-1.328-1.89-2.935c-.298-.396-.717-.558-1.09-.7-.66-.252-1.232-.47-1.232-1.974l.056-21c0-.82.635-1.392 1.543-1.392.77 0 .975.967 1.076 1.912.005.056.61 5.512 1.34 9.913.085.523.348 1.4.6 2.266.186.63.36 1.224.425 1.546l.194.988c.258 1.352.396 2.014.685 2.276 1.118 1.017 5.658 3.182 6.274 3.474.056.088.077.183.06.274s-.07.167-.154.218a.4.4 0 0 0-.04.029l-7.04 6.42z" fill="url(#C)"/><path d="M19.62.615c.446 0 .688.502.813 1.676.005.056.614 5.517 1.342 9.926.088.54.353 1.434.606 2.298.183.624.356 1.21.42 1.522l.19.983c.276 1.45.414 2.104.768 2.425 1.102 1.004 5.374 3.057 6.25 3.474.003.01.003.02 0 .03s-.008.024-.03.04c-.03.02-.056.037-.08.06l-6.8 6.205-.64-1.055c-.632-1.05-1.288-2.136-1.902-2.96-.343-.457-.802-.632-1.206-.786-.64-.244-1.062-.406-1.062-1.724l.056-20.992c-.003-.672.513-1.124 1.275-1.124zm0-.53c-1.12 0-1.81.744-1.81 1.657l-.056 21c0 2.566 1.644 1.854 2.375 2.832.914 1.222 1.926 3.055 2.856 4.516l7.27-6.633c.32-.197.38-.614.128-.93 0 0-5.11-2.404-6.27-3.458-.303-.276-.47-1.517-.797-3.12-.154-.765-.874-2.903-1.023-3.804-.733-4.447-1.336-9.897-1.336-9.897-.085-.858-.28-2.152-1.336-2.152z" fill="#eda600"/><path d="M22.237 33.707l13.41-.15-.15-10.312-8.43-3.785a.7.7 0 0 0-.962.465c-.252.986-.84 2.733-2.125 4.486a24.39 24.39 0 0 1-3.331 3.655c-.228.204-.382.476-.44.776s-.016.61.12.884l3.23 2.484-1.323 1.495z" fill="url(#D)"/><path d="M20.903 3.78s-.218-1.373-1.466-1.373-1.333 1.373-1.333 1.373M21.3 7.234s-.274-1.5-1.596-1.5-1.626 1.5-1.626 1.5" stroke="#eda600" stroke-width=".25" stroke-miterlimit="10" stroke-linecap="round" stroke-linejoin="round"/><path opacity=".2" d="M26.85 20.237l7.86 3.528.13 9.002-10.91.122.25-.306a.79.79 0 0 0 .173-.606.8.8 0 0 0-.321-.542L21 29.223a.61.61 0 0 1 .189-.566c.9-.797 2.2-2.1 3.442-3.777a14.23 14.23 0 0 0 2.221-4.643zm-.066-.837a.7.7 0 0 0-.677.526c-.252.985-.84 2.733-2.125 4.486a24.39 24.39 0 0 1-3.331 3.655c-.228.204-.382.476-.44.776s-.016.6.12.884l3.23 2.354-1.325 1.626 13.41-.15-.15-10.31-8.428-3.785c-.093-.042-.19-.06-.284-.06z" fill="#424242"/><defs><radialGradient id="A" cx="0" cy="0" r="1" gradientUnits="userSpaceOnUse" gradientTransform="translate(14.6904 9.61047) scale(11.5291 17.2113)"><stop offset=".353" stop-color="#ffca28"/><stop offset=".872" stop-color="#ffb300"/></radialGradient><linearGradient id="B" x1=".226" y1="26.553" x2="15.687" y2="26.553" gradientUnits="userSpaceOnUse"><stop stop-color="#094"/><stop offset="1" stop-color="#28aa49"/></linearGradient><radialGradient id="C" cx="0" cy="0" r="1" gradientUnits="userSpaceOnUse" gradientTransform="translate(21.1793 9.61047) rotate(180) scale(11.5291 17.2113)"><stop offset=".353" stop-color="#ffca28"/><stop offset=".872" stop-color="#ffb300"/></radialGradient><linearGradient id="D" x1="35.648" y1="26.553" x2="20.189" y2="26.553" gradientUnits="userSpaceOnUse"><stop stop-color="#094"/><stop offset="1" stop-color="#28aa49"/></linearGradient></defs></svg>