<svg xmlns="http://www.w3.org/2000/svg" width="916.999" height="708"><g fill="#ffd633"><path d="M492.146 616.415l-4.315 20.135-2.3 28.188 7.19 4.9 18.12 1.726 11.505-2.3 46.3 26.463 51.487 3.452 20.997-10.067 2.59-11.218-52.638-20.135-44.008-36.242-12.368 3.452z" stroke="#000"/><path d="M856.27 433.627l-28.475 32.542-13.017 40.27-.814 10.17 32.136 13.83 7.73-7.322s16.678-34.17 16.678-35.797-2.034-11.797-2.034-11.797l17.085-27.66 20.746-47.186 4.88-28.475-6.915-4.88-11.797 7.322z"/></g><g fill-rule="evenodd"><path d="M231.204 425.106c4.67-3.182 14.216-14.572 19.22-17.204 11.123-5.853 60.675-17.36 62.286-18.04 2.454-1.035 18.395-4.653 27.683-6.938 21.8-5.367 99.966-40.036 120.566-48.925 2.63 6.92 24.34 37.468 20.615 40.6-12.262 10.307-34.24 23.14-48.444 30.528-11.488 5.974-23.656 10.917-35.94 14.954-13.946 4.583-23.52 9.497-37.418 14.186-13.675 4.612 2.667 19.04 9.7 22.02 7.877 3.344 20.078 5.04 28.127 7.94-14.17 22.024-26.07 48.755-28.452 75.138-.573 6.35-5.413 12.17-13.286 10.27-4.062-.98-41.546-5.974-47.658-7.367-40.803-9.305-114.052-58.034-95.19-108 4.32 1.995 14.187-6.423 18.204-9.16z" fill="#094"/><path d="M254.03 160c3.048-.257 10.93-6.346 6.794-9.426-4.173-3.107-7.17 7.305-6.794 9.426M95.245 183.353c.797-.14.45-4.5-.806-5.058-3.96-1.757-4.294 4.85-4.4 6.617-.12 2.23-.4 8.516 4.414 6.793 2.733-.978 1.037-6.68.782-8.352M329 203.723c-.108 3.892 7.755 11.376 10.687 6.887 2.465-3.772-10.485-14.634-10.687-6.887m-278-87.78c2.278 5.8 13.545-2.1 13.964-6.372.86-8.73-14.08.563-13.964 6.372M145 141c5.247-.43 12.15-7.102 17.2-9.594 3.424-1.686 12.74-3.696 13.754-7.525.882-3.327-14.926 3.794-16.275 4.426-6.2 2.905-11.793 6.217-14.7 12.692m393.897-46c4.182-3.234 9.266-5.32 14.627-5.183 2.677.068 8.262 1.743 8.472-2.887.342-7.53-23.3 1.653-26.996 3.13l3.897 4.94M278 388.387c-3.068-5.095-8.587-8.04-12.736-12.387 1.52 7.137-1.908 13.485-4.264 20l17-7.613M810.805 497c1.7-5.66 3.384-11.286 5.362-16.858 2.2-6.24 3.3-6.78-1.984-11.142L801 493.918c3.13 1.33 6.393 2.624 9.805 3.082M356 87.365c-5.818-6.558-33.087-6.97-29.712 7.504 1.177 5.054 7.88-.315 12.08-1.493 4.168-1.17 15.97-1.325 17.63-6m-1 92.85c-.705-1.674-2.113-7.715-4.203-8.2-2.036-.464-10.07 5.872-11.58 6.84C331.683 183.7 324.34 188.883 317 194c2.8 0 5.363-1 8.157-1.022 3.32-.028 5.7 1.335 8.938.557 6.955-1.67 15.027-9.376 20.905-13.32m7.536-149.645c.654-3 34.745 6.005 38.843 7.654 2.232.897 13.75 6.884 11.274-2.14-1.408-5.14-14.718-9.057-18.983-10.465-10.843-3.58-22.275-6.125-33.82-5.534-2.242.114-19.22 1.094-12.13 7.918 2.443 2.35 11.2 1.6 14.817 2.567M370 442.713c6.352 3.125 12.837 5.516 19.475 7.96 2.95 1.085 7.544 3.928 10.797 3.214 2.665-.586 3.52-4.644 4.92-7.36 5.118-9.938 11.23-17.955 18.8-26.15-3.52-2.566-21.38 8.754-25.8 10.426s-8.6 3.358-12.93 5.357c-4.077 1.882-12.123 3.565-15.27 6.554M482.463 358c9.256-4.2 18.03-11.617 25.623-18.268 8.717-7.637 16.532-15.64 22.913-25.522-3.84.196-12.32 12.548-12.413-.9-.05-6.86 9.352-13.617 12.27-19.98-7.258-4.098-13.9 20.388-22.24 14.453-8.023-5.72 4.637-25.382 7.075-31.586-4.706-3.13-31.518 31.915-35.4 36.4-2.427 2.807-8.167 6.544-9.537 9.818-.816 1.95-.932 8.134-.538 9.927.82 3.75 4.98 8.24 6.832 11.73 2.344 4.42 4.385 9.013 5.413 13.927M865.153 484.35c-8.005-11.3.264-16.227 6.773-25.605 5.206-7.502 9.995-15.77 13.295-24.148 8.253-20.953 15.7-40.433 19.776-62.598-5.6 2.56-9.117 12.306-11.923 17.44-3.773 6.904-7.093 14.15-11.286 20.838-7.848 12.517-15.553 25.868-25.536 36.718-4.523 4.916-8.353 10.448-13.57 14.878-2.384 2.023-6.945 3.685-8.702 6.215-1.658 2.4.196 3.916-.433 6.77-.646 2.928-3.608 6.05-4.88 8.87-1.67 3.703-3.224 7.415-5.087 11.036-2.032 3.948-2.588 6.013-3.136 9.873-.6 4.22 1.238 4.657-2.447 8.546L844.793 525l1.426-2.67c1.835-1.782 3.522-6.178 4.572-8.532 4.387-9.824 9.342-19.688 14.365-29.444M220.32 436.92c-18.96 49.92 47.668 91.95 88.683 101.246 5.68 1.287 11.225 2.973 16.88 4.355 6.166 1.507 11.64 1.208 17.796 1.838 4.897.5 7.23 4.284 11.844 5.327 7.7 1.74 7.24-4.053 7.8-10.26 2.34-26.325 15.775-51.724 29.995-73.7-6.496-2.324-12.93-4.86-19.343-7.404-5.487-2.178-13.9-8.3-19.787-8.624-4.362-.238-11 3.487-15.247 5.122-7.056 2.723-14.133 5.043-21.487 6.9-12.86 3.247-27.17 7.673-40.477 8.008-3.836.097-14.36 1.884-17.12-.487-5.264-4.52 2.043-8.3 6.45-9.904 26.264-9.618 54.15-13.707 80.5-23.567l40.607-15.742c11.757-4.3 24.07-8.125 35.433-13.425 15.005-6.998 30.074-15.716 43.067-25.987 2.6-2.055 8.05-5.108 9.832-8.086 1.57-2.622 1.373-.007 1.048-3.186-.234-2.284-3.028-5.378-4.177-7.536-4.282-8.043-8.15-16.305-11.405-24.817-20.726 8.9-40.444 21-60.865 30.5-20.554 9.563-43.74 16.3-65.727 21.7-9.36 2.3-20.118 3.014-28.7 7.54-3.647 1.922-7.252 4.146-11.158 5.258-1.154 2.213-2.3 2.647-3.408 1.3-.7-.786-1.607-1.12-2.72-.997-2.4.405-4.826 1.533-7.06 2.4-11.3 4.384-22.137 9.875-32.874 15.476-5.1 2.654-10.308 5.267-15.178 8.298-2.6 1.625-4.95 3.264-7.085 5.495-2.56 2.675-1.95 4.873-6.095 2.97m426.66-296.4c4.8.078 9.16-2.518 14.155-2.373 7.858.227 14.078 6.32 18.637 12.194 9.024 11.625 6.723 25.648 2.2 38.657-2.17 6.217-5.146 12.184-8.867 17.627-3.294 4.818-9.182 9.375-11.48 14.74-3.792 8.847 3.858 5.085 8.54 3.195 5.888-2.378 11.4-5.333 16.407-9.314 22.276-17.742 39.223-42.403 44.9-70.725 2.77-13.818 2.556-29.972-7.07-41.25-8.8-10.313-24-13.682-36.977-11.77-14.037 2.07-26.76 8.014-38.2 15.668-3.32 2.224-6.36 4.65-9.478 7.138-4.1 3.263-6.54 3.35-5.517 8.463.76 3.802 2.83 7.74 4.165 11.4 2.498 6.833 1.587 8.6 8.583 6.362m15.276 117.8l-.97 1.656c6.684.32 12.9-5.577 18.604-8.456 7.398-3.74 13.967-8.844 20.45-13.997 11.432-9.1 23.015-19.332 31.523-31.263 19.077-26.748 36.405-60.658 31.2-94.57-5.6-36.55-37.578-50.618-71.642-45.78-15.35 2.18-29.056 9.034-42.794 16-6.925 3.508-12.77 8.058-19.113 12.463-3.292 2.287-6.296 2.583-6.5 6.582-.162 3.013 5.047 9.827 6.455 12.557 17.25-17.596 35.837-32.153 61.886-33.053 31-1.07 49.315 28.314 49.18 56.452-.133 27.595-12.035 54.14-31.008 73.97-8.622 9.013-16.843 16.245-27.43 22.823-5.278 3.28-9.17 6.223-15.072 8.4-4.174 1.54-3.74.73-4.804 4.593-.904 3.28.02 8.226.047 11.63m-168.4 374.9c-.403 4.973-1.414 9.868-2.54 14.72-.405 1.742-2.68 7.24-2.28 9.2.66 3.236-.218 1.156 2.618 2.844 2.958 1.763 6.402 1.656 9.64 2.192 2 .33 9.324 3.778 10.556 3.234 2.153-.952 2.085-4.308 4.45-5.638 3.22-1.814 7.965-.26 11.002 1.16 8.12 3.788 13.7 11.63 21.557 15.92 13.954 7.62 30.5 11.84 46.08 13.58 8.433.943 17.064 2.598 25.393.623 6.562-1.558 15.1-1.414 18.658-8.455-31.7-8.718-80.087-19.387-92.62-55.767-6.814 6.178-18.2 2.85-26.435 1.998-9.06-.938-17.154-.72-25.438-4.85-.606 3.246-.8 5.94-.64 9.24M213.21 407.913c14.923.902 29.07-6.16 38.254-18.076 2.26-2.935 4.578-5.93 5.936-9.407l.882-2.644c1.425-2.433.8-3.582-1.87-3.445-1.505-2.064-5.32-2.758-4.235-6.498.818-2.823 3.834-2.868 6.456-3.756-1.306-2.194-2.087-3.295-3.956-5.246-4.857 4.37-13.672 12.946-17.085 2.907-1.64-4.818 1.247-9.425.53-14.073-.294-1.922-2.732-6.834-4.144-7.983-7.523-6.124-18.36-3.6-26.34.015-5.5 2.485-6.685 3.65-7.582 9.347l-2.768 17.357c3.3-1.72 3.903-5.436 6.055-8.112l2.422 4.406c1.136-.637 2.197-.604 3.182.102 1.593 2.45.6 6.08.1 8.648 5.312-.496 7.557 5.43 2.202 7.83-5.547 2.486-8.05-4.292-8.237-8.683-2.07 2.472-4.196 1.15-5.64 2.42s-2 3.917-2.523 6.816c-.843 4.763-3 11.635-1.004 16.414 2.963 7.097 12.4 10.8 19.363 11.66M645.6 179.975c-4.938 6.867-13.357 15.856-15.117 24.152 5.438-3.192 16.937-18.55 19.9-6.315 1.7 7.022-7.022 15.4-9.164 22.188 8.577-2.822 14.686-11.66 20.038-18.48 6.823-8.697 13.8-20.16 15.533-31.22 1.4-8.95-4.8-17.3-14.024-18.167-4.712-.45-9.63.3-14.184 1.392-2.076.497-5.172 1.115-7.024 2.228-2.327 1.396-2.645 4.667-4.836 1.946L628 174.158c2.897-1.05 8.808-5.513 11.975-5.052 4.624.675 5.574 7.4 5.636 10.87M183.28 45.644c-12.945.382-26.476 3.138-38.73 7.236-3.043 1.018-15.882 4.64-13.178 9.892 1.787 3.47 11.422-1.434 14.335-2.252 12.484-3.506 25.338-5.818 38.125-7.928 3.097-.5 13.6-.46 14.14-4.52.664-4.952-11.036-2.435-14.692-2.43m352.312 564.822c-7.016.857-13.754.536-20.777-.323-5.9-.723-11.93-3.143-17.8-3.143 0 6.295-.427 6.335 6.215 7.682 4.636.94 9.338 1.47 14.023 2.125 8.25 1.154 17.406 4.4 25.757 2.727-.203-1.093-.842-8.47-1.707-9.2-.487-.4-5 .14-5.7.132M422.2 144.677c1.962 1.25 6.472 6.235 8.8 6.323-.835-5.77-7.274-15.82-14.667-12.253-1.812.875-5.618 5.23-3.896 7.15.92 1.027 7.35-1.213 9.755-1.22m-68.4 51.34L354 193c-2.713 1.595-6.073 2.35-8 4.92l6.943 3.08.838-4.983m213.676 153.22c12.82 4.5 24.57 10.484 34.006 20.662 8.156 8.8 12 24.307 13.98 35.842 4.927 28.546-4.58 55.005-10.848 82.313-3.18 13.853-7.927 27.184-12.372 40.678-3.88 11.784-7.2 24.125-12.566 35.33-4.542 9.5-10.345 18.868-14.34 28.725-2.15 5.304-5.635 23.506-13.797 17.8-2.227 5.823-2.768 5.328-.388 9.372 1.724 2.928 7.57 6.994 10.327 9.378 7.35 6.356 16.66 11.594 25.284 16.044 15.794 8.152 32.724 14.25 49 21.68 7.2 3.288 14.988 7.172 13.374 16.578-1.35 7.885-5.914 13.865-13.03 17.374-6.68 3.295-16.24 5.84-23.6 6.872-4.36.614-5.36-1.2-8.917-1.83-3.957-.697-8.576.65-12.658.616-18.326-.16-34.372-4.77-49.18-15.398-5.292-3.798-13.083-14.1-20.008-14.1-3.54 0-2.793 2.15-5.907 3.413-3.843 1.556-10.465-1.382-14.243-2.072-8.05-1.47-16.234-2.962-21.594-9.894-5.795-7.492-3.735-16.773-1.245-25.093 2.807-9.38 7.53-18.894 9.537-28.415.5-2.316.94-6.633.443-9-.772-3.656-4.463-5.837-4.574-9.796-.035-1.204 1.7-2.792 2-4.035.665-2.73.563-5.562.836-8.34.5-4.955 1.62-9.704 2.4-14.6 1.772-11.145 5.267-21.087 8.65-31.825 3.282-10.422 6.406-18.178 12.752-27.202 3.285-4.674 14.275-21.324 8.908-26.116-7.345 14.428-15.934 25.68-27.175 37.166-8.598 8.786-17.004 20.597-27.764 26.853-11.83 6.88-26.3 10.927-39.354 14.565-6.214 1.73-11.37 5.565-18.07 6.275-7.26.768-14.65-.137-21.76-1.756-2.002-.455-7.774-3.53-9.585-3.335-2.668.3-6.506 5.046-9.434 5.92-7.127 2.126-11.994-1.936-17.4-5.7-5.867-4.074-7.642-5.086-14.412-5.576-8.292-.6-16.357-3.523-24.513-5.312-14.34-3.146-26.528-9.522-39.562-16.197-14.94-7.65-27.72-18.2-38.983-30.66-16.555-18.32-39.6-69.088-12.567-86.863-15.92-2.162-30.502-9.114-32.442-27.134-1.014-9.43.894-19.873 3.265-28.962 1.082-4.15 2.372-8.274 3.6-12.38a8.5 8.5 0 0 0 1.475-4.554c.57-2.137-.253-3.202-2.47-3.192-4.193-4.903-7.346-9.23-8.194-16.192-.267-2.206-.506-5.6 1.064-7.464a5.36 5.36 0 0 1 2.627-1.511c2.457.14 3.152-1.07 2.083-3.63 1.193-3.628-.576-6.455 3.92-7.97a114.51 114.51 0 0 1 4.306 1.005c1.824.832 3 .23 3.56-1.802 4.236-1.658 2.282-4.1 8.038-1.976a24.94 24.94 0 0 1 9.334 6.222c3.182-2.042-4.054-14.668-4.296-18.696-.572-9.494 3.353-17.345 8.46-25.144 9.927-15.155 23.783-28.188 37.447-39.913 26.173-22.456 53.667-43.834 83.22-61.725-12.2-8.467-26.434-10.762-40.94-6.827-13.373 3.628-24.213 10.216-36.523 15.98-11.404 5.337-23.508 7.53-27.145-7.035-4.074-16.315 8.924-22.37 20.583-29.687-2.9-2.172-12.495-.62-16.12-.362-8.074.57-15.795 2.394-23.642 4.006-3.763.772-7.22.598-10.948 1.355-5.542 1.125-11.33 2.385-16.936 3.988-13.34 3.816-26.58 9.606-38.108 17.407-9.963 6.74-16.875 16.256-24.902 25.022-9.155 9.994-17.926 19.828-31.498 23.486-6.355 1.713-13.8 3.268-18.315-2.408-4.192-5.278-4.425-11.638-4.288-18.092.303-14.254 7.2-29.658 15.2-41.306 8.695-12.644 20.34-19.884 31.344-30.062-15.904 1.137-31.274 9.52-45.9 15.315l-9.28 3.72c-3.3 1.204-5.486.467-8.648 1.018-7.216 1.26-13.413 4.3-20.432-.548-13.28-9.17.025-27.828 9.167-33.553C59.505 98 72.46 91.297 86.5 85.6c-7.595-8.238-1.108-19.994 5.892-25.838 8.858-7.395 20.136-11.633 30.8-15.6 8.44-3.13 16.73-6.137 25.5-8.02 9.217-1.98 19.996-5.005 29.35-4.715 8.77.272 16.55-1.273 25.434-1.52 7.392-.205 14.8-.028 22.192-.22 19.886-.514 39.846.828 59.28 2.258C269.545-13.067 370.972.84 392.6 6.72c19.665 5.346 42.197 11.547 58.715 24.23 6.998 5.372 13.644 11.48 19.853 17.748 9.16 9.247 14.23 21.358 19.076 33.3 12.3-6.02 24.04-12.58 37.487-15.566 12.795-2.84 25.902-6.688 38.772-8.834 9.785-1.63 23.988-2.738 32.223 4.17 8.944 7.505 13.604 19.183 18.943 29.185 25.64-24.33 54.24-42.078 90.796-40.898 35.772 1.155 59.295 32.046 63.632 65.52 4.777 36.885-11.654 75.428-33.926 103.992-9.987 12.8-20.32 25.182-33.763 34.738-6.666 4.738-13.698 9.928-21.007 13.627-3.645 1.844-7.63 3.5-11.456 4.93-1.726.64-3.504 1.283-5.3 1.718-5.128 1.244-4.132-.417-6.04 4.072-1.547 3.645-1.357 9.915-2.02 13.915-.757 4.572-1.207 9.207-2.313 13.717-1.915 7.817-3.9 15.443-6.3 23.077-4.542 14.447-10.653 29.008-18.14 42.186 6.35 2.758 15.24 3.035 22.025 3.87 7.344.904 14.697 2.803 22.325 4.936 15.284 4.274 28.942 7.88 43.476 14.28 15.088 6.643 28.537 16.56 43.065 24.454 13.36 7.26 26.866 16.35 39.273 25.065 2.952 2.073 4.78 3.875 7.13 6.5 2.404 2.683 3.17 3.207 6.042 5.532 1.296 1.047 5.063 6.33 6.542 6.526 2.65.35 2.242-1.626 4.32-4.386 4.342-5.762 10.398-10.226 14.7-16.134 3.596-4.926 7.346-9.915 11.2-14.15 9.302-10.253 17-21.616 23.622-33.907 3.442-6.398 7.066-12.488 10.803-18.527 3.72-6.012 10.337-13.947 17.747-13.592-.596-3.062-2.5-3.57.778-5.443 2.104-1.207 6.2.737 7.823 1.962 4.292 3.243 4.482 9.536 4.2 14.262-.697 12.18-3.246 24.205-6.8 35.723-4.27 13.846-9.62 26.062-15.462 39.276-4.65 10.527-10.424 24.448-21.996 29.253 7.77 11.095 4.04 20.137-1.154 31.917-3.796 8.6-8.8 17.5-16.447 23.208-8.6 6.425-17.946.975-26.95-3.27-5.438-2.566-22.067-8.618-18.685-16.512-4.154-.554-6.767-3.57-10.548-4.5-4.003-.983-3.315.643-7.55 1.252-3.247.467-8.105-2.44-11.162-3.482l-15.3-5.275c-14.355-4.944-28.47-9.812-42.965-13.774-26.973-7.37-54.28-11.55-81.157-18.132-5.388-1.32-10.745-2.592-16.355-3.65-1.158-.218-7.17-.553-7.9-1.793-1.28-2.173 2.653-14.333 3-16.812 2.215-16.267 1.492-34.076-1.63-50.16-1.296-6.686-7.085-15.343-7.035-21.87.035-4.378 3.914-9.158 6.192-13.124 5.634-9.805 11.537-20.4 15.7-30.604 6.4-15.6 10.303-33.23 13.126-49.948 1.47-8.716 3.18-18.164 3.58-26.98.306-6.72-.246-13.77.73-20.652-3.72.353-8.983 2.28-12.333.217-4.23-2.603-5.367-10.036-4.827-14.475-14.486 2.528-14.005-11.2-13.108-21.952-26.18 0 7.348-38.904 11.537-47.258 1.925-3.84 1.868.473 1.018-5.466-.374-2.612-2.158-5.505-3.168-7.906-2.2-5.242-4.58-10.403-7.12-15.487-5.368-10.74-11.45-21.117-18.086-31.123-5.974 4.163-11.36 9.1-16.348 14.378 3.2-8.37 12.98-18.74 8.796-28.243-3.877-8.8-16.823-8.2-24.47-6.588-20.776 4.38-40.703 10.76-60.496 18.147 6.13 3.516 15.518.8 21.6-1.888 7.544-3.33 15.655-6.823 23.785-8.586 7.1-1.538 16.402-1.014 14.354 8.536-1.66 7.738-9.23 15.2-14.223 20.976-11.004 12.748-24.8 22.616-38.352 32.475-14.568 10.6-28.605 22.116-43.357 32.407-26.667 18.606-55.34 34.776-82.9 52.143-14.318 9.024-30.54 16.286-46.067 22.974-17.08 7.358-33.456 15.234-51.177 21.045-9.84 3.228-19.594 5.884-29.264 9.557-6.062 2.3-16.616 6.912-20.62.08-8.134-13.878 21.3-32.13 29.366-40.615 5.564 5.404-21.875 25.54-19.728 33.4 1.688 6.183 8.214-1.8 11.366-3.486 5.093-2.724 11.126-4.093 16.244-7.2 10.5-6.375 22.947-13.725 25.345-26.902-1.668-1.76-1.647-3.385.063-4.875a11.23 11.23 0 0 0 1.81-2.984c.747-2.07 1.047-4.664 1.447-6.86 1.182-6.5-1.785-12.566.988-18.917-16.18 12.26-31.734 26.1-47.093 39.382-13.777 11.905-28.153 27.493-33.216 45.258-.65 2.276-1.726 4.858-1.608 7.26.23 4.715.7 3.7 4.5 5.215s9.333 1.386 13.42 1.547c2.33.1 12.73-2.376 10.663 2.735-1.192 2.946-8.403 2.835-10.985 3.107-6.48.685-9.994-.018-6.924 7.006 1.376 3.148 4.164 5.28 6.352 7.717 6.087 6.78 9.392 17.176 14.18 25.14 5.456 9.072 11.452 17.7 17.823 26.15 2.63 3.486 6.143 10.04 9.788 12.527 3.403 2.323-.6 2.13 5.052 1.187 2.464-.4 4.698-2.013 7.055-2.587 14.093-3.434 28.578-7.303 43.153-11.54 18.64-5.42 38.205-10.043 56-17.85 15.933-6.995 31.748-15.322 47.848-22.406 4.702-2.067 9.398-3.438 13.052-7.244 4.4-4.592 8.063-10.604 12.13-15.54 6.918-8.396 13.295-16.937 20.743-24.894 5.543-5.92 15.368-16.927 23.2-19.3 14.86-4.5 6.906 18.146 4.985 23.867 3.493.793 5.33-3.688 9.43-2.4 4.9 1.544 5.417 8.073 6.03 12.163.163 1.1-1.313 3.127-.864 4.1.153.332 3.356 2.226 3.974 3.103 2.243 3.2 1.802 7.067.95 10.507-4.398 17.814-20.03 30.823-31.526 43.964 5.143-.973 8.956-3.904 13.8-5.357 4.557-1.363 9.138-1.293 13.73-1.683 4.8-.4 9.428-2.2 14.348-2.3 5.163-.096 10.106 1.375 15.226 1.958M23.737 189c-2.835 1.853-3.634 3.67-3.732 7.946-.04 1.753.082 8.294 2.532 8.047 2.3-.232 1.2-13.744 1.2-15.993M9.092 199.653c1.32-13.702 6.334-27.632 18.125-36.17 2.916-2.1 6.215-2.036 9.4-3.368 1.92-.8 4.956-4.52 7.136-4.08 8.027 1.624-1.247 12.3-2.605 15.096-4.2 8.693-3.924 16.33-3.8 25.708.096 7.127 1.577 19.142-2.016 25.593-3.83 6.87-12.137 2.4-16.775-1.657-5.852-5.133-10.272-13.306-9.478-21.123m140.91 40.5c0 7.646 6.206 2.47 5.984-2.968-.324-8.007-6.273-3.076-5.984 2.968m33-42.266c-6.792 6.108-12.03 9.535-13.34 18.927-1 7.114-.006 14.16.036 21.326.07 12.012-9.63 24.64-20.067 10.87-7.614-10.043-4.883-25.836 1.326-35.93 3.258-5.296 7.9-10.534 13.282-13.835 4.04-2.484 15.4-7.37 18.762-1.36M88.15 383c-.788 1.863-2.636 9.47 1.135 7.75 3.33-1.52 1.173-6.56-1.135-7.75m-19.928-23.482c-.582-2.86-.345-20.8 4.594-19.446 3.88 1.054 4.52 10.232 6.1 13.427 5.885 11.894 19.392 19.302 24.05 31.58 5.2 13.7-10.52 14.135-18.86 8.584-9.876-6.574-15.6-22.67-15.884-34.143"/><path d="M56.117 286c2.143-2.894 2.36-4.44 1.138-7-1.562 1.7-1.284 4.127-1.138 7m1.55 12.945c-11.173 1.25-11.733-19.34-9.82-26.4 1.524-5.63 4.8-11.68 8.172-16.27.68-.926 7.142-9.245 8.408-9.265 4.86-.076 3.524 5.414 3 7.458-1.65 6.44-2.305 11.822-1.86 18.962.477 7.64 4.094 25.777-7.9 25.524M565 120.618c-15.977 13.4-31.145 27.905-48.518 39.625-8.5 5.735-17.388 10.8-25.87 16.64-4.32 2.97-8.73 5.627-13.52 7.8-4.234 1.928-7.002 2.18-3.5-2.397 2.348-3.057 7.6-5.187 10.8-7.36 4.922-3.346 9.57-7.06 14.75-10.028 9.128-5.237 18.2-9.465 26.615-15.887 7.47-5.698 15.174-11.263 22.302-17.32 3.056-2.597 13.192-14.52 16.923-11.08"/><path d="M565.323 169c7.185 6.146-10.792 22.984-14.892 26.8-4.323 4.025-9.084 7.615-13.786 11.18-1.655 1.256-10.685 9.66-12.977 8.98-4.522-1.34 1.415-6.8 2.958-8.213l14.975-13.8c4.403-4.26 9.17-8.206 13.43-12.603 3.45-3.563 6.347-9.6 10.293-12.346M33 416.756c-1.876-4.348-5.236.48-3.533 2.65 1.6 2.056 3.293-1.815 3.533-2.65m-11-8.585c1.006-6.392 3.33-9.944 9.326-4.488 4.12 3.75 12.408 14.4 11.62 20.222-1.032 7.624-9.428 5.46-13.78 1.474-4.46-4.086-6.43-11.54-7.167-17.208m13.14 125.804c-7.346-.56-13.613-6.2-16.732-12.808-2.625-5.558-5.1-14.517 4.112-11.596 6 1.905 29.177 25.3 12.62 24.404m89.024-36.235c-5.676 1.292-11.292-2.447-14.783-6.663-2.172-2.625-7.227-11.83-4.68-15.62 3.55-5.285 8.9 5.338 10.76 7.44 2.9 3.293 12.383 9.6 8.704 14.84"/><path d="M129.277 354c-4.45-2.065-8.58-4.55-10.37-9.483-1.138-3.14-2.094-12.56 2.96-12.517 5.845.052 19.232 21.057 7.4 22M98.08 256.003c5.958-.108 7.37 3.178 8.197 7.9.562 3.204 3.292 14.08.457 16.3-4.05 3.184-10.492-4.1-11.795-6.975-2.684-5.896 1.027-11.695 3.14-17.233"/><path d="M200.458 582.138c2.9 1.32 9.5 4.247 6.98 8.8-2.637 4.75-10.208.134-13.036-1.942-1.184-.87-8.706-6.557-8.392-8.464.663-4.053 11.033 1.237 14.448 1.617M9.326 285.508c1.982 4.965 4.214 22.02-6.225 12.8-3.186-2.8-3.667-6.32-2.57-10.18 1.587-5.592 3.897-4.484 8.794-2.63M562.538 222c-2.312-4.723 3.396-7.77 6.445-10.813 2-1.988 10.364-12.772 13.1-12.162 5.647 1.253-16.778 20.87-19.554 22.975M98.004 564.086c5.447-.874 6.718 5.177 10.227 7.814 1.505 1.13 6.67 2.126 5.632 4.527-2.73 6.307-16.126-8.1-15.86-12.34"/><path d="M144 421.192c3.744-1.568 14.55 6.85 11.447 10.488-4.638 5.44-11.183-7.5-11.447-10.488m78.917 121.794c-2.73.27-14.246-3.35-9.98-8.196 2.996-3.404 10.958 5.114 9.98 8.196M85 519.728c-2.7 1.083-12.48-1.145-9.4-5.4 2.927-4.04 9.413 2.035 9.4 5.4m80 18.31c3.168-.33 5.456 1.58 6 4.816-3.962.565-5.184-.378-6-4.816M577 68.5h4-4m-21 278.506l-6 .008 6-.008M283.14 21l-.278 6 .278-6m619.666 340c.64 2.225-.296 2.594-2.806 1.106l2.806-1.106M846 535.5h3-3M656 374.525c-1.677 1.278-3.345 1.458-5-.068l5 .068"/><path d="M618.565 204l-.13 5 .13-5M705 49.7l-5-.005c1.668-.624 3.335-.42 5 .005M216 29.353l-5 .294 5-.294m41 .317l-4-.34 4 .34"/><path d="M279 31.255c-1.333.497-2.666.8-4 .007l4-.007m-119 2.738l-5 1.014 5-1.014M619.568 441l-.136 3 .136-3M68.472 360l.057 2-.057-2M909 356.412l-5 .026c1.663-1.242 3.33-1.084 5-.026m-342-7.082l-4-.66 4 .66M201 581.988l-5-.975zM537.546 295l-.092-3 .092 3"/><path d="M221 29.685l-3-.37 3 .37m164-24.73l-3-.9 3 .9M504 679.44l2 .122-2-.122M45 142.46l3 .08-3-.08m671-91.784l-5-.352 5 .352m-527-4.682l-7 .012 7-.012M661.452 252l.096 5-.096-5M539 610.032l-4-.064 4 .064M681 80.194l6-.666c-1.92 1.698-3.993.568-6 .666M528 610.556l-3-.1 3 .1M493.424 628l.152 5-.152-5M646 141.598l4-.37c-1.217.938-2.646.4-4 .37M209 407.633l4 .734-4-.734m208-263.13c1.664-1.418 3.33-1.264 5-.016l-5 .016M354.427 195l.146-2-.146 2m291.053-19l.042 4-.042-4M204.284 385.03c2.194.744 6.607 3 9.164 2.693 2.047-.24 3.734-2.727 5.708-2.724 5.315.007 4.33 6.15 1.762 9.45-6.945 8.92-22.464-.752-16.633-9.418M225.977 353c7.248 1.87 3.638 17.814-2.455 18.9-7.174 1.292-8.425-11.672-7.007-16.358 3.692 2.193 1.406 10.02 6.06 7.857 2.96-1.378 2.5-7.743 3.403-10.4"/></g></svg>