<svg xmlns="http://www.w3.org/2000/svg" width="594.391" height="688.376"><g fill-rule="evenodd"><path d="M157.117 154.848L155 189.442c4.54-1.307 33.41-9.802 31.628-1.19-1.28 6.178-9.397 12.86-13.533 17.162-3.806 3.96-7.726 7.817-11.745 11.56 7.387-2.828 14.836-5.505 22.34-8.01 5.677-1.895 11.395-3.746 17.212-5.167 2.16-.528 8-2.68 10.03-1.213 5.36 3.857-23.723 32.27-27.707 36.275 5.633-2.62 11.4-5 17.268-7.04 4.235-1.475 17.32-7.11 21.07-2.298 4.012 5.148-5.927 16.97-8.683 20.718-3.95 5.37-8.23 10.523-12.72 15.45 18.665 16.765 40.6 31.686 63.942 40.96 17.116 6.8 33.928 8.532 51.99 4.8 18.554-3.835 36.348-11.188 53.263-19.594 9.934-4.938 19.737-10.28 29.076-16.283-3.85-4.684-7.588-9.464-11.22-14.318-5.183-6.93-11.554-14.503-14.5-22.752-2.892-8.074 7.96-6.498 13.165-6.06 7.538.635 15.055 1.983 22.442 3.594-5.223-3.633-10.35-7.41-15.377-11.312-6.55-5.084-15.287-10.832-19.574-18.146-3.77-6.43 4.504-4.807 8.33-3.964 9.122 2 17.997 5.434 26.697 8.774 6.372 2.446 12.704 5.008 18.975 7.705a197.94 197.94 0 0 1-11.27-10.606c-4.86-4.94-11.414-10.976-13.593-17.78-4.437-13.857 25.41-3.404 30.507-1.266l-2.823-43.065-118.567 31.55c-4.27 1.137-9.616 3.612-14.07 3.744-4.035.12-8.908-1.696-12.842-2.447l-127.58-24.377" fill="#ffd633"/><path d="M581.896 648.592c-4.267 2.44-9.265 4.326-14.005 5.6-2.784.744-7.384 3.04-9.83.935-1.174-1-1.443-3.304-2.136-4.633-1.097-2.104-2.655-3.922-4.115-5.782a238.05 238.05 0 0 0-11.074-13.096c-1.826-2-5.16-6.7-8.378-6.392-4 .385-3.914 5.935-2.9 8.77 3.2 9.028 12.884 16.898 19.2 23.7-1.608 2.475-10.443 2.18-12.896 1.6-3.745-.884-4.125-3.55-5.834-6.602-3.998-7.13-12.1-11.118-18.776-15.3-2.43-1.53-7.597-5.766-10.765-4.7-3.002 1-2.872 4.845-1.916 7.35 1.444 3.785 5.553 6.4 8.592 8.802 4.052 3.188 7.757 6.658 11.134 10.562-4.867.397-9.716 1.083-14.57 1.483-5.87.484-10.764-2.737-16.17-4.563-5.022-1.697-10.026-3.13-14.964-5.087-5.544-2.196-11.352-2.96-16.945-4.886-21.95-7.56-43.455-17.067-64.606-26.65-10.08-4.567-19.95-9.137-30.45-12.7-7.653-2.605-19.68-7.797-21.5-16.913-.966-4.817 2.553-9.996 3.072-14.8.6-5.662.13-11.9-1.595-17.323-1.52-4.786-4.04-9.217-6.025-13.8-2.312-5.355-.242-5.268 4.25-5.877 5.378-.73 11.654-3.757 16.7-5.728 5.823-2.273 11.596-5.448 16.93-8.712 4.824-2.952 9.022-6.758 12.862-10.9 3.906-4.205 6.436-9.187 10.213-13.494 13.94 17.143 27.188 34.547 42 50.95 7 7.742 14.593 14.144 23.207 20.03 3.597 2.46 7.166 5.267 11.085 7.2 4.9 2.433 10.38 3.942 15.417 6.162 19.314 8.5 37.747 17.813 55.765 28.794 8.717 5.3 16.033 11.4 23.7 18.065 2.4 2.074 21.96 14.163 15.313 17.967M355.33 508.152c-3.12 1.414-6.096 3.25-9.427 4.158.944-5.744 6.304-14.408 13.176-13.455 2.626.364 4.606 2.403 3.453 5.214-1.05 2.554-4.98 3.077-7.202 4.083M138.076 352.36c-3.54 1.954-6.836 3.092-8.9-1.102 1.537-.3 8.518-1.24 8.9 1.102m-5.892-11.854c-2.734-.83-.547-1.7.394-2.702.733-.778 3.16-3.5 4-3.96 3.75-1.987 6.65 5.406 8.443 7.806-4.246-.377-8.712.1-12.846-1.142m29.237 25.598c-5.183.878-4.607-5.607-4.453-8.892 1.093 1.334 8.494 8.207 4.453 8.892m17.176-11.2c-6.32 1.066-10.494-9.85-9.36-14.626.997-4.207 5.894-6.555 9.792-7.176 3.78-.602 9.04.22 10.162 4.577.992 3.85-6.38 16.514-10.593 17.225m149.57 164.8c-4.54 1.396-9 1.57-13.554 2.94-5.178 1.555-9.97 1.416-15.16 2.474-2.1.43-7.806 3.505-9.865 2.818-2.04-.68-4.992-7-6.164-8.657 9.18-3.816 17.012-8.743 23.063-16.783 4.812-6.394 9.972-15.974 6.945-24.226-3.414-9.304-15.182-11.324-23.028-7.438-3.712 1.837-7.4 4.123-10.45 6.923-3.5 3.202-4.875 6.698-7.142 10.647-2.293 3.995-3.9 1.773-6.192-1.62-1.957-2.9-1.702-5.827-4.148-8.688-1.248-1.46-3.18-2.867-3.832-4.752-.413-1.195.457-3.314-.326-4.256-1.102-1.322-2.44.232-3.364-.95-.67-.857-.45-2.812-1.143-3.885a9.62 9.62 0 0 0-2.006-1.563c-.896-.443-1.06-.997-.5-1.662-.712-1.32-.026-1.764-1.55-3.368-2.378-2.5-4.546-4.897-6.24-7.848-.774-1.35-.697-3.355-1.658-4.524-1.32-1.606-3.516-1.364-4.65-3.35-1-1.77-.334-4.868-2-6.475l-2.636-.74c-.66-.642-1.047-1.422-1.157-2.34-.925-1.425-1.1-3.098-2.277-4.603-2.236-2.878-5.243-5.537-7.218-8.57-2.076-3.2-.975-3.727 2.63-4.868 3.252-1.03 6.222-1.987 9.237-3.74 13.937-8.1 27.15-29.626 5.03-36.2-8.2-2.44-14.954-9-24.056-6.42-3.946 1.118-7.7 3.498-10.633 6.322-2.034 1.953-3.918 7.174-6.415 8.174-4.5 1.798-2.592-2.695-3.866-4.76-.608-.985-3.058-2.12-3.966-3.017a17.61 17.61 0 0 1-2.835-3.678c-1.373-2.413-2.213-3.758-4.193-5.723-.747-.742-4.473-4.575-1.112-4.074-1.36-4.15.625-4.772 3.37-7.803 3.224-3.56 6.553-8.505 6.572-13.492.037-9.575-11.3-13.865-18.435-8.182-1.45 1.157-10.026 12.32-8.27 5.2.946-3.84 9.706-13.864 13.767-11.27-4.55-6.633-15.006 9.472-17.446 12.768-2.078-3.825-2.225-6.818-5.663-9.78-2.798 4.5-1.32-.417-1.938-1.414-1.333-2.153-.6.3-1.324-.455-.9-.953-2.318-1.704-3.275-2.966-1.64 2.226-.985-.17-1.488-1-1.175-1.944-.72-3.07-2.735-4.762-1.466-1.23-4.354-3.138-6.327-3.313-2.275-.202-2.905.67-5.223.025-2.95-.82-6.66-2.08-5.232 2.853 1.036 3.584 5.25 5.62 6.173 9.283.93 3.686-2.715 7.4-4.484 10.423-2.27 3.877-4.128 3.56-8.242 4.434-2.63.56-6.138 1.754-3.884 4.944 1.6 2.28 5.384 1.8 7.5 3.15 2.98 1.892 2.94 6.558 6.743 7.37 4.2.894 6.6-3.77 10.123-4.898 2.512-.8 10.294-.712 12.27 1.174 2.695 2.57.367 7.48 1.045 10.673 1.008 4.735 4.212 5.024 8.263 5.175 4.987.186 6.74 4.975 9.422 8.773 6.282 8.897 11.742 18.38 18.177 27.16 2.848 3.887 7.015 7.344 9.348 11.562 2.88 5.2-1.118 8.214-4.57 11.953-4.5 4.886-7.875 10.446-11.786 15.787-3.476 4.746-7.794 3.565-13.348 3.565 1.238-2.55 2.727-4.142 5.77-3.833-3.184-3.888-5.73.56-7.795 3.022-2.987 3.562-6.882 4.422-10.72 6.764-1.358.828-8.754 6.2-6.507 8.034.255.208 12.497-7.845 13.892-8.584 0 2.973-.65 6.062-.234 9.018.305 2.168 1.83 4.43 1.505 6.683-.616 4.255-6.114 7.606-8.474 10.92-1.777 2.495-1.348 4.463-2.252 7.14-.824 2.443-.4 1.704-2.446 2.46-4.185 1.537-11.227.708-15.016-1.478-2.352-1.356-4.156-3.5-6.066-5.4-1.44-1.425-5.06-3.858-5.46-5.85-.686-3.43 6.127-9.808 7.475-13.348 3.808-10-2.723-17.755-12.884-18.322 3.132-2.416 7.014-.595 10.315.326-5.644-7.82-15.282-1.385-20.07 3.93-3.27-8.268-4.848-17-6.846-25.614-1.36-5.87-6.542-16.35-4.23-22.395 1.117-2.922 4.27-4.552 6.453-6.578 2.48-2.303 4.6-5.056 6.413-7.906 4.27-6.714 6.735-15.2.857-21.807l5.36-.88c-2.905-2.73-7.5-1.4-11.26-2.2-2.392-.513-9.276-.18-10.873-1.535-1.92-1.627-.7-9.118-.62-11.335.158-5.18.6-10.16 1.163-15.3.542-4.865.433-10.12 1.438-14.9.816-3.878 3.424-5.06 6.433-7.345 7.192-5.465 13.053-12.112 10.597-21.53l2.6-.415c-2.814-2.035-6.456-1.295-9.585-2.37 2.874-8.1 9.23-22.312 19.553-23.078.355 3.616.112 7.918 2.552 10.912 2.778 3.408 7.654 3.752 11.417 1.95 3.414-1.638 6.62-5.108 8.194-8.536 1.064-2.32.872-6.245 2.74-8.084 2.507-2.467 19.788-.98 19.258 3.185-.312 2.448-4.932 6.564-6.224 8.734-2.363 3.97-4.255 8.266-5.123 12.827-1.318 6.925-.554 16.068 6.48 19.7 8 4.142 17.747-1.124 24.307-5.674 3.602-2.498 7.1-5.255 10.382-8.15 1.753-1.54 3.514-3.128 5.06-4.88 1.14-1.294 2.052-3.38 3.456-4.348 3.317-2.288 6.568 1.594 9.375 3.555 4.572 3.195 9.12 6.228 14.03 8.886 9.958 5.395 19.064 12.54 27.868 19.635 8.856 7.137 17.988 14.48 25.162 23.37-4.346 2.673-3.57 3.367-5.503 8.135-1.372 3.384-3.262 6.263-3.48 10.023-.377 6.488 3.788 12.017 10.1 13.454 3.536.803 6.904.16 10.18-1.286 2.545-1.123 5.083-3.9 7.742-4.576 4.944-1.275 8.9 8.064 11.672 11.354 12.308 14.6 25.318 28.645 36.908 43.853 1.283 1.685 5.096 4.975 5.406 7.205.445 3.203-4.593 6.254-6.682 8.1-1.098.963-12.734 11.9-8.826 13.65 1.113.496 4.374-6.22 5.2-6.794 3.052-2.15.743 2.065.562 4.195-.455 5.296 3.183 8.182 8.296 7.5 5.457-.716 10.314-5.024 13.7-9.092 4.23 4.9 10.846 12.3 12.07 18.857.782 4.183-2.837 14.42 3.92 15.272 1.03.13 4.763-2.64 5.46-1.067.58 1.313-3.454 3.555-4.036 4-2.486 1.856-3.987 3.844-5.995 6.092-2.356 2.64-5.576 4.86-8.227 7.4-2.793 2.664-8.318 9.897-12.003 6.403-1.852-1.756-1.365-4.053-4.332-5.084-2.702-.938-6.124.25-8.635 1.293-2.827 1.17-12.136 5.448-13.17 8.968-1.425 4.855 6.27-.982 7.637-1.835-1.56 3.96-2.423 9.694-6.395 12.004-3.3 1.92-8.05 3.048-11.67 4.16m-52.77-29.953c2.642-8.5 18.222-23.632 28.07-18.896-11.476 2.405-20.583 10.26-28.07 18.896m5.826 24.317c-3.84-2.14-3.633-8.356-4.974-11.993-.77-2.087-2.308-3.6-1.856-5.927.53-2.714 3.992-5.732 5.835-7.7 5.8-6.163 16.008-14.583 25.344-13.17 11.883 1.8 3.828 17.753-.22 23.246-3.45 4.684-16.738 19.655-24.13 15.534m-27.722-10.385c-12.85-.858-25.66-2.007-38.334-4.366-4.494-.837-8.26-.713-5.688-5.88.85-1.705 5.97-12.394 7.124-12.087.685.182.53 7.528.73 8.37.908 3.782 3.456 7.306 7.752 7.066 7.03-.392 11.56-9.48 15.26-14.358 2.965 3.986 5.1 8.415 8.1 12.334 1.425 1.874 6.384 6.232 5.065 8.92m-75.343-50.446c-2.156 4.948-6.492 9.653-9.508 14.135-1.705-3.6-2.904-11.895 1.14-14.564 1.53-1 9.73-2.7 8.367.428m44.57 14.733a80.33 80.33 0 0 1 1.983-5.649c1.257 3.957 1.9 4.075-1.983 5.65m11 4.053c1.56 2.644 4.16 5.244 3.752 8.564-.3 2.516-2.584 5.094-4.208 6.847-2.687 2.9-8.642 8.468-12.535 4.616-3.253-3.217-2.12-12.063-.607-15.683 2.16-5.172 9.88-10.644 13.6-4.345m-7.632-5.418c.894-.355-.984-6.126.76-6.7 1.52 3.467 2.953 4.405-.76 6.7m-24.556-77.663c-.58-2.13-1.908-2.04-1.43-4.672.314-1.726 1.683-3.57 2.723-4.936 2.07-2.726 4.803-4.973 7.757-6.674 6.237-3.6 14.8-5.08 20.385.54-5.22.824-21.223 5.977-21.324 13.117 5.805-1.118 10.37-6.95 16.192-8.787 4.78-1.5 9.96-1.403 14.715.2 13.013 4.358 7.602 15.606.258 22.912-4.36 4.338-9.6 7.576-15.304 9.8-2.645 1.034-4.268 1.148-6.868.63-.487-.098-1.056-1-1.64-1.194-1.45-.48-1.03 1.147-2.225.416-1.043-.637-3.267-4.752-3.976-5.93-1.13-1.875-1.655-3.7-3.04-5.4s-2.062-4.008-3.346-5.558c-.616-.746-2.304-.716-2.758-1.443-.68-1.093.186-1.9-.118-3.007m-19.985 83.88c2.957-5.14 8.017-9.502 11.932-13.993.24 7.383-5.053 12.437-11.932 13.993m3.997 2.374c6.108-2.15 9.473-7.3 10.096-13.525.8-7.897 5.75-12.04 8.734-19.136 1.144-2.72 2.48-11.665 6.916-9.105 1.522.878 2.425 4.182 3.218 5.674 1.92 3.6 4.1 7.1 6.136 10.655 1.657 2.887 4.14 5.788 3.4 9.264-.638 3.03-2.7 6.257-3.9 9.114-2.837 6.748-6.564 12.962-9.678 19.56-1.256 2.662-2.743 8.965-6.58 8.933-3.036-.026-2.697-3.345-4.696-4.483-2.523-1.436-5.392 1.297-7.465 2.43 2.386-4.03 6.56-6.312 11.25-5.554-5.617-5.593-9.4 1.954-14.23 3.634-4.567 1.593-12.67-5.918-16.515-8.047 1.47-2.5 2.8-5.538 5.33-7.177 2.4-1.556 5.345-1.317 7.964-2.238M135.9 526.3c.67-3.22 2.56-5.124 3.757-8.05 1.4 3.546-1.864 5.638-3.757 8.05m97.042 19.762c-.328 10.845-1.214 21.66-1.534 32.5-.147 5.003-1.033 9.775-1.62 14.72-.497 4.182-.244 8.3-2.876 11.862-4.15 5.633-12.22 7.252-18.483 9.338-4.6 1.532-9.253 2.922-13.796 4.625-4.087 1.532-7.382 3.852-11.27 5.673-3.477 1.63-7.23 2.595-10.7 4.33-3.58 1.796-6.4 3.983-10.086 5.582-4.402 1.913-8.03 5.318-11.944 8.02-3.446 2.38-7.092 4.216-10.057 7.207-2.78 2.807-6.3 4.037-9.45 6.53-3.33 2.636-6.818 4.35-10.498 6.417-7.54 4.237-17.7 11.472-26.782 7.357 2.595-3.314 7.905-6.5 8.3-11.066.525-5.948-4.652-3.76-7.65-1.86-4.54 2.877-7.053 6.35-10.5 10.184-4.04 4.482-9.146 1.466-14.1.206l10.1-9.165c2.85-2.573 7.2-5.356 8.944-8.914 1.24-2.545 1.18-6.033-1.813-7.353-3.348-1.477-7.134 1.638-9.613 3.493-6.582 4.925-10.918 11.17-15.24 18.024-2.3 3.645-3.358 3.365-7.588 2.636-4.482-.772-8.964-1.595-13.484-2.137 5.986-6.148 12.677-12.808 17.405-20.002 1.532-2.33 3.53-8.474-1.137-9.04-1.923-.233-5.752 3.7-7.236 4.76-6.483 4.634-12.715 10.478-17.012 17.244-1.418 2.233-1.864 4.717-4.6 4.902-3.6.243-10.263-3.184-13.728-4.243 6.62-8.346 13.195-16.752 20.93-24.112 7.107-6.763 14.196-11.677 22.507-16.863 8.908-5.56 17.206-11.96 25.385-18.53 7.828-6.288 16.007-12.22 23.213-19.24 14.394-14.024 27.215-30.153 37.833-47.207 2.484-4 4.822-8.085 6.844-12.33 1.898-3.987 2.774-8.756 5.336-12.383.886-1.253 2.133-2.184 2.922-3.492.745-1.23.492-2.72 1.627-3.8 2.625-2.52 7.405-1 9.86.766 3.946 2.84 7.138 6.288 11.474 8.666 4.362 2.4 9.08 4.13 13.9 5.305 11.288 2.745 22.48 4.997 33.98 6.664-1.184 4.4 1.723 5.08 2.685 9.03 1.17 4.792-.33 10.818-.476 15.698M124.25 472.9c-2.56-3.802-4.843-7.78-7.36-11.606-1.532-2.33-3.43-4.834-2.12-7.685 2.206-4.806 9.986-5.662 14.208-3.567 9.6 4.764.682 18.384-4.728 22.858m-25.408-86.97c-.884-7.432 1.958-12.705 8.682-16.603 4.792-2.778 8.65 1.018 7.997 6.08-.996 7.714-9.24 16.294-15.53 20.32l-1.15-9.798m-1.025-21.265c1.983-1.574 7.295.434 9.593.572l-9.482 8.284c-.207-1.894-1.94-7.402-.1-8.855m10.664-71.778c15.992-2.08-2.417 15.083-7.052 17.773.754-3.652 2.606-17.194 7.052-17.773m42.574-30.047c-2.147 8.796-18.842 18.392-19.016 3.983-.064-5.37 2.95-4.934 7.353-5.45 2.5-.293 12.9-3.562 11.663 1.466M93.392 276.45c-1.874 4.92-3.377 9.965-5.214 14.9-.814 2.18-1.772 3.68-3.288 5.407-1.27 1.445-2.78 1.8-2.73 4.092 1.6-.307 2.834-1.254 4.118-2.168-.312 4.527-1.912 9.4-2.686 13.9-.928 5.4-1.7 10.824-1.987 16.312-.622 11.93-.627 23.82-.366 35.758l.522 18.247c.164 3.023.35 6.06.723 9.063.152 1.213 1.032 3.795.488 4.932-2.136 4.462-11.598-7.795-15.707-5.996.6-3.396-.773-2.653-3.05-4.323-1.103-.8-1.82-2.187-2.97-2.908a7.15 7.15 0 0 0-1.148-1.002c-.476-.648-.977-.58-1.505.207-4.63-2.767-5.825-8.665-8.3-12.633-1.278-2.04-2.513-2.358-2.73-5.178-.2-2.458.18-4.962.08-7.43-.113-2.784-.276-5.854-1.057-8.55-.907-3.13-2.154-2.874-4.582-4.542.75-.327 1.242-.877 1.48-1.65-.776.138-3.133 1.1-3.718.408-1.152-1.357 1.566-1.538 2.28-2.08-3.048-1.353-2.4-2.465-1.292-4.945.312-.7.6-1.75.873-2.34.578-1.293.9-.474 1.102-2.08.182-1.53-1.175-4.54-1.575-6.172-.67-2.736-1.042-5.1-.44-7.95.488-2.308 1.8-4.398 1.892-6.772.026-.666-1-.887-1.003-1.53-.02-.94.858-1.354 1.086-2.223.583-2.224.32-4.576 1.317-6.686.897-1.896 2.7-4.348 3.992-6.003.9-1.146 3.07-2.438 3.308-3.95.158-1.003-1.403-.887-1.333-1.643.094-1.023.952-1.354 1.188-2.114.65-2.086.812-4.1 2.5-5.7 2.112-2.012 3.03-1.17 3.117-4.487.043-1.62-1.252-1.87-.56-3.735.377-1.013 1.5-1.612 2.2-2.33 2.112-2.13 3.536-4.023 5.04-6.655 1.33-2.326 3.452-3.68 4.814-5.688 1.775-2.618-.878-3.916 2.723-4.655-.512-1.625-1.056-2.94.3-4.315.85-.868 3.005-.337 3.757-1.34.862-1.152-.412-3.884.887-4.632 1.056-.607 2.638 1.266 4.297.34 1.265-.707 3.174-4.6 2.767-6.043 3.27 1.84 2.455.573 4.02-1.787.35-.53 1.414-.646 1.716-1.18.604-1.067.466-2.155 1.336-3.023 1.45-1.445 3.823-1.074 5.42-2.105 1.32-.852 1.25-1.77 2.3-2.575.9-.687 2.376-.82 3.25-1.53 1.712-1.395 1.73-2.867 3.87-4.07 2.537-1.422 4.784-2.63 7.1-4.516 1.505-1.228 2.932-3.407 4.692-4.217 2.434-1.12 4.33-1.2 6.7-2.8 1.72-1.157 3.348-3.065 5.037-4.04 1.274-.734 2.168-.576 3.775-1.03 2.9-.82 3.595-3.544 5.953-4.653 1.62-.762 3.976-.064 5.754-.465 5.533-1.242 10.998-3.92 16.55-5.405 6.777-1.8 13.6-3.396 20.43-4.997-6.275 8.505-14.268 16.18-22.373 22.933-2.66 2.218-17.24 12.326-9.382 16.643 3.155 1.732 10.008-3.864 12.555-5.23 5.13-2.755 10.44-4.96 15.813-7.188 8.686-3.603 19.998-10 29.65-9.495-5.876 7.2-13.2 12.996-19.932 19.365-6.176 5.853-15.482 11.342-12.57 20.92-8.676-2.207-16.468-4.816-25.487-4.238-4.04.26-8.083-.228-12.105.34-4.374.618-8.492 2.082-12.694 3.366-3.325 1.015-7 1.095-10.058 2.784a41.12 41.12 0 0 0-4.634 2.996c-1.77 1.35-2.173 2.246-3.564 4.026-4.96 6.352-9.76 12.306-12.708 20.044m-27.136 120.2l-.828-3.358c2.76 1.7 2.76 1.7.828 3.358M45.392 361.66c-.34.47-1.77.62-2.186.215-.517-.505.842-2.47 1.06-2.9.54.414 1.78 1.768 1.126 2.674m-5.912-12.743l1.098-4.027c.45 1.244 2.472 2.62 2.517 3.806.028.786-3.215.395-3.615.22m1.173 1.84c3.168 2.086 3.5 4.547 3.594 8.146-3.8-1.255-3.247-4.926-3.594-8.146m55.095-142.06c-.32.866-1.677 3.562-2.672 1.676-.318-.604 2-1.428 2.672-1.676m-.9-2.94c.783-.706 2.36.173 3.247-.398.62-.4.415-.805.707-1.042.058-.048.902-1.756 1.248-2.144.6-.682 1.943-1.107 2.685-1.722 2.075-1.72 3.246-3.98 4.55-6.28 1.558-2.747 2.054-3.065 4.566-4.322 1.732-.867 3.075-1.928 4.484-3.4 1.624-1.697 1.505-2.912 2.838-4.767.658-.916 1.606-1.03 2.374-1.767.92-.883 1.387-2.12 2.238-3 .368-.386 1.547-.385 1.77-.715.283-.418.505-2.1.77-2.396l1.523 2.058c2.002-3.52 3.463-6.43 6.8-8.773 3.516-2.46 6.55-6.06 10.186-8.264.816-.495 2.48-.704 3.105-1.433 1.055-1.235.14-2.333.9-3.382.873-1.2 2.565-.227 3.675-.74 1.405-.648 1.807-2.543 3.616-2.334-5.948 7.037-5.873 17.985-6.2 26.773-.137 3.787 2.248 5.696-1.273 8.475-2.995 2.364-7.218 1.663-10.76 3.218-4.446 1.954-9.202 2.993-13.74 4.696-4.692 1.76-8.466 4.844-12.982 6.884-3.982 1.798-6.702 4.354-10.344 6.574-1.354.825-3.452 2.023-5.066 1.037-1-.618-2.27-1.634-.95-2.825m67.175-59c.26-1 5.335-3.627 6.584-4.484 1.874-1.3 4.65-4.435 6.74-3.185.725-2.904 3.553-6.134 6.053-6.75 2.773-.684 7.53-3.062 10.257-5.137.796-.606 1.06-1.492 1.997-2.06 1.632-1 3.252-.45 4.824-1.8.24-.206 2.416-3.798 2.503-3.764a20.45 20.45 0 0 1 .301 1.167c1.65-.916 3.12-1.644 4.15-2.812.234-.265-1.28-.954-.802-1.48.585-.642 1.9.076 2.48-.534-1.838 9.124-.47 20.868 8.787 25.494-11.008 1.2-21.76-2.12-32.904-.087-5.334.974-10.757 2.57-15.6 5.025-2.973 1.504-6.774 6.9-9.734 4.274 1.174-1.566 2.966-2.54 4.37-3.867m53.413-26.25c4.116-5.035 10.36-7.027 16.65-5.224 7.362 2.112 4.257 7.256 3.145 12.967-2.125-3.115-6.727-6.204-10.646-6.298-5.555-.132-3.456 4.497-.12 6.155 3.033 1.507 8.234 1.927 10.406 4.667 2.113 2.667 1.303 7.027 1.644 10.172l-4.93-.733c1.38-7.34-4.7-7.694-10.348-9.763-5.718-2.1-10.486-6.213-5.802-11.944m18.44-18.072v6.8L227 105.328l6.868-2.896m18.4 54.423c7.644 2.07 15.234 4.263 22.582 7.12 2.67 1.038 5.592 1.405 8.206 2.577 2.5 1.115 2.864 1 1.978 3.18-2.48 6.114-8.358 5.058-13.507 4.123-8.06-1.464-15.953-3.494-23.912-5.404-7.78-1.865-15.723-3.1-23.386-5.427-7.863-2.4-15.525-4.67-23.613-6.254-2.36-.462-21.032-2.175-20.9-4.127 11.76-1.528 23.866-.023 35.678.136 12.276.165 24.958.846 36.864 4.074M241.9 133.2c.146-4.204.205-8.42.727-12.6 3.498 4.318 6.656 5.6 11.066 1.563 4.222-3.874 5.164-5.894 10.517-2.252 4.64 3.16 9.03 3.014 13.96.248 3.006-1.687 7.837-8.58 10.997-7.16 1.506.677 2.6 3.402 4.13 4.405 1.908 1.256 4.84 2.128 7.064 2.616 5.25 1.15 8.38-2.227 11.676-5.84 4.78-5.24 4.64-2.196 9.07 1.436 4.943 4.052 9.076 2.072 13.55-1.385 2.727 7.988 3.747 16.713 4.517 25.088.26 2.828 1.23 6.843-1.3 8.843-1.8 1.4-5.6 1.465-7.746 2.245-7.705 2.786-15.1 6.738-21.553 11.798-2.5 1.97-4.7 4.385-8.13 3.937-3.27-.428-6.447-3.165-9.078-4.973-2.854-1.96-5.74-4.186-9.077-5.278-1.953-.64-5.082-.408-6.8-1.582-3.177-2.18.562-7.903-.23-11.744-.6-2.916-2.277-8.996-6.294-7.287-5.977 2.543-2.498 12.47.788 15.57-6.724-1.194-14.168-2.938-20.653-5.153-5-1.712-7.382-7.367-7.202-12.494m112.767 20.475c13.802-3.875 26.718-6.5 41.082-7.194 6.358-.313 12.514-.115 18.8-.058 3.62.033 6.378-2.886 3.486-6.244-4.002-4.65-16.2-2.88-21.618-3.1-14.498-.56-27.792 1.088-41.522 5.867 1.452-2.675 4.94-3.022 7.33-4.405 2.932-1.698 4.926-4.495 6.18-7.6 3.26-8.073-.022-15.68-3.432-23.054 6.7 1.802 13.628 5.748 20.362 6.75 1.412.2 2.318.075 3.567.6.766.315 1.008 1.405 1.958 1.643.46.115 1.562-.922 2.08-.775 2.05.58.43.734 1.726 1.573 1.03.666.946 1.523 2.834 1.2.837-.138 1.745-1.433 2.186-1.468.562-.046.432-.73 1.292-.53 1.564.364 1.426 2.38 1.947 3.37.557 1.056-.234 2.46 1.454 3.038 1.262.432 1.578-.9 2.65-.804.65.058 2.003.997 2.578 1.568 1.854 1.84 4.4 3.875 6.884 5.073-.245-.246 1.174-.84.835-.98-.228-.093 1.263.267 1.24.262 1.44.327 2.2 2.537 2.926 3.342 1.337 1.477 3.415 3.036 5.3 3.687 3.24 1.128 3.142-.22 4.325 3.63 2.304-3.623 3.188 2.444 6.046 3.112 1.48.346 1.307-.288 2.652.486.923.53 1.54 2.157 2.235 2.942l.895-3.395c2.058 3.9 6.5 10.082 11.373 8.964 0 1.064-.438 2.336.385 3.244.575.635 1.507-.086 1.957.283.393.322 1.332 1.605 1.633 1.816.593.416 1.67.72 2.185 1.134.454.365.678 2.108 1.182 2.737.946 1.184 2.58 1.42 3.355 2.838l.53-4.2c1.535 1.186 1.667 2.106 2.044 3.84.537 2.47-.175 1.9 1.53 2.934 1.674 1.026 2.547.9 4.082 2.7 1.505 1.744 1.518 2.818 3.7 1.002.404 1.344.534 3.082 1.612 4.112.814.778 4.186.812 4.508 2.65-6.334-5.345-2.166 2.773.003.013.458 2.953 2.62 3.907 5.088 6 2.302 1.96 2.68 1.818 3.465 5.1-.018-.073 1.157.656 1.242.8-2.243.32 1.235 2.827 1.822 3.285.43.335.988-.465 1.7.077.815.62 1.48 2.028 2.142 2.877 1.797 2.302 3.128 4.28 5.02 6.15 2.04 2.02 3.034 4.574 4.995 6.935 2.174 2.622 3.35 5.637 5.17 8.483 1.73 2.707 4.025 4.88 6.027 7.36 3.2 3.945 4.276 12.633 10.225 12.86-.35.36.136 3.053.193 3.55.28 2.445.095 4.798 1.54 7.013.33-2.526 1.653-1.553 2.802-.226 1.9 2.208.233 1.652.333 3.9.123 2.712.43.614 1.464 2.983.8 1.855 1.252 3.058 1.686 5.117-3.36.266-4.9-2.48-6.14-5.14-.52-1.113-.7-2.942-1.618-3.812-.978-.926-2.322-1-3.327-2.032-1.93-1.985-2.765-5.08-5.04-7.012-2.57-2.182-3.138-3.213-5.262-5.823-2.35-2.886-5.593-4.912-8.057-7.704s-2.268-1.27-5.37-2.282c-3.297-1.078-8.628-11.444-12.782-7.45.164-2.612-3.748-5.068-5.725-6.015-.855-.408-1.85-.038-2.705-.652-.927-.665-.994-1.947-1.93-2.746.001.001-1.434.348-1.725.202-.593-.3-.597-1.362-1.12-1.712-1.448-.968-3.173-1.982-4.7-2.806-3.734-2.003-7.034-4.47-10.637-6.88-3.086-2.066-6.822-5.797-10.4-6.886-3.116-.95-5.076-.467-7.627-2.37-1.4-1.037-.98-1.385-3.215-2.03-2.127-.614-3.32-.298-4.447-2.553-1.97-3.946-.727-11.648-1.108-16.073-.405-4.696-.886-9.5-2.1-14.075-1.45-5.397-3.36-8.218-9.15-6.947l-34.323 7.133c-22.96 4.4-45.525 11.608-67.98 17.998-1.7.487-11.252 2.672-9.303-2.262.898-2.276 6.938-3.124 8.96-3.84 11.098-3.928 22.248-7.93 33.592-11.114m-3.858-10.043l-5.03 1.918v-4.663l5.03 2.745m-6.97-24.655c1.457 1.2 4.42-1.675 5.658-2.256 2.116-1 4.8-1.843 7.175-1.64 4.36.377 7.55 4.67 6.75 9.022-1.352 7.364-11.844 10.846-17.63 13.725-.186-2.6-1.03-5.747.8-8.004 1.6-1.96 4.67-1.818 6.136-3.902 3.7-5.24-6.3-5.715-8.544-1.548l-2.645-7.987c2.128-.352 1.193 1.688 2.298 2.6m10.32-14.414l-6.245 4.037c-1.032-4.66 2.485-5.272 6.245-4.037m189.7 162.15c-2.727 1.3-3.408-1.806-5.37-1.94 2.316-1.424 2.316-1.424 5.37 1.94m11.087 67.844c.34 4.466.074 8.983.67 13.43.453 3.384 1.823 6.533 1.97 9.955.32 7.495-2.2 15.127-7.322 20.62-4.835 5.197-11.753 9.67-18.28 11.855-2.94.983-6 3.164-8.867 3.97-3.16.893-6.162-1.05-8.768 2.434-1.738-14.942-.468-30.555-.605-45.6-.137-15.07.025-30.142-2.524-45.05-2.27-13.276-6.745-28.208-14.994-39.07-3.35-4.4-7.476-8.023-11.827-11.404-2.257-1.754-4.516-3.63-7.03-5.015-3.87-2.132-7.166-1.837-11.375-2.445-6.024-.87-11.623-1.605-17.668.1-5.628 1.58-11.826 3.378-16.868 6.122-5.022 2.734-10.853 3.86-16.066 6.3-3.546 1.666-10.912 7.23-14.847 6.23-3.8-.97-9.446-7.435-11.878-10.33-3.108-3.7-5.68-8-8.436-11.97-.968-1.398-2.942-3.558-3.193-5.353-.437-3.116.8-2.097 3.787-1.75 7.653.898 14.85 2.317 22.184 4.726 3.65 1.198 10.787 6.047 14.437 3.142 5.573-4.436-2.895-12.06-5.997-14.623-5.284-4.365-11.43-7.606-17.062-11.484-5.984-4.122-13.898-8.5-17.75-14.856 11.247 3.32 22.482 7.123 33.4 11.403 4.996 1.958 9.933 4.027 14.625 6.63 2.635 1.462 7.96 5.417 11.134 3.523 6.9-4.118-8.946-16.08-11.232-18.523-3.552-3.798-7.033-7.56-10.937-11.006-2.634-2.325-6.772-3.96-7.997-7.4 4.372 1.583 7.906 4.683 12 6.8 2.143 1.104 4.1 1.74 6.466 2.076 2.523.362 2.824.764 4.813 1.767 1.548.783 3.14 1.828 4.877 2.36 1.24.38 3.403.445 4.486 1.147.553.8 1.125 1.566 1.715 2.33a23.65 23.65 0 0 1 1.95.672c.96.856 1.53 2.037 2.464 2.92 6.78 6.412 15.85 11 23.452 16.373 7.192 5.082 14.824 9.68 21.732 15.226 7.95 6.384 16.2 13.245 22.96 20.9 3.82 4.326 6.962 9.23 10.172 14.015 2.324 3.464 5.704 6.337 7.712 9.9 4.38 7.787 8.015 16.204 12.73 23.866 4.805 7.807 11.063 15.563 11.785 25.066m-64.615 45.18c1.3-5.404 8.7-11.714 13.422-14.097-2.38 5.888-8.72 9.904-13.422 14.097m12.186 18.85c-4.028 8.357-21.74 9.313-19.337-3.054 1.178-6.06 6.175-9.778 10.465-13.744 1.983-1.832 6.84-8.388 9.9-7.332l-.4 14.16c.006 3.147.8 7.012-.627 9.97m-5.12-96.325c1.634 3.67 3.263 6.727.23 10-1.368 1.482-5.826 4.724-7.843 4.004-6.474-2.3 5.87-12.364 7.612-14.015m-39.16-32.658c1.56-.085 3.074.147 4.615.052 1.535-.096 1.697-.368 3.12-.174l.45.655c.194 1.464.964 1.623 2.306.478 1.868.416 3.083.693 4.87 1.702-4.82 3.476-10.688 7.518-16.6 8.685-9.34 1.844-6.76-10.957 1.24-11.398m-143.2 78.172c-.97 1.95-3.755-2.92-4.444-3.827 1.286-.004 5.424 1.86 4.444 3.827m75.06-51.295c7.258-4.235 15.878-7.954 23.673-11.107 1.37 6.604-5.314 15.13-9.432 19.648-3.33 3.655-7.344 7.445-11.857 9.548-4.88 2.274-10.215 1.275-9.978-5.106.087-2.332.618-6.084 1.567-8.215 1.224-2.748 3.538-3.318 6.027-4.77m-98.1-120.13c1.08-.063 12.815-1.58 12.753-.12-.185 4.4-11.575.943-12.753.12M208.983 261.1c6.198-7.648 16.204-15.902 16.35-26.6.216-15.727-17.238-7.88-26.014-7.227 4.64-4.56 27.958-23.686 14.166-30.48-3.965-1.953-9.6-.045-13.577.978-7.058 1.816-13.62 4.96-20.554 7.147 4.954-5.274 13.515-11.268 13.234-19.256-.343-9.723-8.324-7.372-15.225-5.945-2.652.55-14.5 5.262-16.724 2.062-.815-1.172.504-2.66.783-3.705.493-1.847.34-2.5.357-4.377.034-3.806 2.563-8.692.5-12.232a17.25 17.25 0 0 0-1.21 2.51c-.68-2.06-.223-4.244-.903-6.304 17.23 4.406 34.756 6.818 52.093 10.58 8.777 1.904 17.037 5.183 25.934 6.658 8.973 1.487 17.8 3.764 26.78 5.183 8.202 1.294 16.06 3.448 24.182 5.1 7.918 1.6 16.038-1.92 23.766-3.707l51.944-11.988c20-4.484 40.806-8.318 59.95-15.796a350.64 350.64 0 0 0 2.386 29.814c-8.455-3.997-21.002-9.208-29.55-2.057-3.42 2.86-4.474 7.8-3.122 12.003 1.47 4.574 5.98 6.698 8.953 10.14-9.052-2.32-32.402-18.68-36.56-2.144-2.936 11.68 11.384 19.224 18.386 25.8-6.953-1.36-16.264-6.92-20.347 2.014-3.528 7.723.722 16.128 5.075 22.498 2.36 3.45 5.012 6.7 7.52 10.044 1.326 1.77 2.62 3.562 4.014 5.28s4.034 3.525 5.013 5.378c1.972 3.737-2.007 3.966-5.102 5.316-3.864 1.686-7.182 4.516-10.715 6.773-8.1 5.166-15.163 9.964-24.724 11.615-9.844 1.7-19.322 3.474-29.037 5.845-9.684 2.363-17.6 4.634-27.488 1.58-4.513-1.393-8.2-2.63-12.976-2.368-5.028.275-7.968.014-12.1-3.1-17.8-13.398-37.098-24.4-55.458-37.04m-32.07-13.45c6.875-3.45 13.796-6.916 20.898-9.88 5.878-2.455 14.804-5.314 21.24-4.238-1.814 4.66-5.124 8.483-8.675 11.915-3.14 3.035-7.063 7.614-10.863 9.732-3.45 1.923-7.465-1.122-10.868-2.4-3.74-1.4-8.885-2.055-11.732-5.13m1.728 17.403c3.426-1.424 10.8 3.354 13.905 4.595 6.123 2.442 12.28 4.992 17.678 8.845-6.6 7.615-14.053 14.578-22.92 19.47-5.835 3.218-15.668 6.9-21.172 1.066-6.915-7.343 1.398-22.306 6.293-28.598l.488 3.23c1.562-2.5 2.754-7.37 5.73-8.607m125.776 65.18c-4.274.9-5.727.087-8.548-3.2-1.908-2.216-3.782-4.516-5.932-6.5-2.195-2.033-7.616-6.935-.7-4.112 6.295 2.572 11.687 3.86 18.613 2.85 7.92-1.15 15.302-4.5 23.1-6.195l-12.818 11.263c-4.53 3.946-7.958 4.68-13.715 5.892m.977 30.123c-9.366 7.05-28.224 6.286-21.877-9.223.965-2.356 2.314-4.573 3.874-6.58.52-.67 1.446-2.06 2.188-2.5 2.072-1.256 1.497-1.408 3.5.687 1.72 1.807 15.148 16.573 12.326 17.624m-2.777-26.95c.858-.28 4.473-2.375 5.297-1.215.834 1.174-6.254 5.237-5.297 1.215m68.2 107.504c-2.106 5.04-18.96 12.334-15.82 2.176 1.4-4.5 2.702-7.906 7.95-8.248 3.028-.196 9.727 1.635 7.872 6.072m30.235-68.3c2.775-4.04 11.937-9.504 15.85-3.478 1.885 2.903-2.7 4.4-5.456 3.643-1.485-.402-2.7-1.3-4.315-1.356-2.076-.085-4.105 1.543-6.08 1.2m7.356 4c-1.887 1.9-13.267 11.485-15.1 10 3.716-5.312 7.983-11.245 15.1-10m-18.585 96.898c-3.95.223-1.978-5.73-1.596-8.112.956 1.66 5.986 7.864 1.596 8.112m10.04-10.673c-1.278-2.275-4.723-5.66-3.944-8.587.596-2.237 5.972-5.246 8.223-3.963 3 1.706-1.345 12.927-4.28 12.55m93.762-23.852c-1.7 5.824-3.442 4.32-8.742 5.45-5.318 1.132-8.994 5.647-13.675 8.068 1.626-3.438 2.634-7.627 5.357-10.416.63-.644 4.488-1.916 2.3-3.4-1.922-1.304-4.685 2.93-5.5 4.082-4.055 5.677-6.9 12.6-9.232 19.142-1.152 3.208-2.074 6.476-2.62 9.846-.486 3.002.038 6.144-.457 9.068-.797 4.7-7.194 4.734-11.04 5.948-3.483 1.098-6.95 2.3-10.565 2.883-3.134.513-6.386-.422-9.423.195-3.3.668-4.766 2.62-8.504 2.178-3.048-.36-5.9-1.76-8.988-1.9-2.9-.13-5.775.87-8.648.056-2.9-.822-2.76-1.14-2.1-4l1.24 2.306c1.156-.906 1.955-3.67 2.663-4.967 1.1-2 1.994-2.705 1.587-5.2-.6-3.698-3.933-6.328-4.7-9.844-.8-3.67 1.924-6.67 3.527-9.733 2.192-4.193 2.163-7.303.326-11.64l4.157 1.098c-1.9-4.123-8.34-2.452-11.57-1.23-1.623.613-4.195 3.025-5.942 2.964-2.4-.084-3.65-3.24-4.682-4.977-2.984-5.027-6.4-10-9.922-14.658-.97-1.283-2.243-2.1-1.908-3.572.286-1.24 3.068-3 3.972-3.766 3.386-2.863 7.696-4.45 10.876-7.464 4.807-4.554 10.35-7.817 15.263-12.28 5.12-4.65 10.395-8.922 15.73-13.317 5.404-4.45 10.085-9.696 15.45-14.193 1.4 2.52 4.083 11.538 7.163 12.237 3.6.813 3.484-3.436 3.305-5.992-.254-3.643-2.277-7.183-2.503-10.66-.242-3.72 3.336-5.382 6.037-7.533 4.17-3.323 13.404-10.893 8.44-17.123-4.275-5.367-18.177 4.923-22 8.017-3.256 2.63-5.772 5.007-9.44 7.08-2.578 1.457-6.903 7.063-9.96 6.545-3.635-.615-5.056-4.585-9.502-4.454-4.346.127-8.037 3.257-10.732 6.4-6.092 7.103-8.186 16.608-13.737 24.012-2.737 3.65-6.287 6.664-9.256 10.12-3.26 3.8-3.953 8.16-7.168 11.87-9.2-12.257-19.224-23.86-28.926-35.716l-14.33-17.912c-1.777-2.25-3.78-4.36-5.408-6.724-2.228-3.236-1.828-5.835-2.703-9.444-.387-1.6-2.203-3.516-1.718-5.044.654-2.055 5.247-3.667 6.903-4.507 6.763-3.434 12.898-7.724 19.204-11.92 11.68-7.766 23.493-15.05 35.913-21.682-.214 2.858-2.074 5.82-.824 8.687.582-1.65 1.503-8.998 3.705-9.313-.422.06-.075 9.424.266 10.76 1.017 4 3.966 6.717 8.186 6.7 8.036-.052 15.24-8.794 19.7-14.585 3.02-3.92 5.92-8.48 6.984-13.388.956-4.406-.096-7.47 4.485-9.708 9.4-4.6 18.872-8.33 28.923-10.764-.45 4.33-1.706 9.664 2.23 12.78 4.346 3.44 10.032.374 14.123-1.9 4.053-2.253 10.302-8.443 15.062-6.645 4.682 1.77 7.94 7.64 10.562 11.54 2.3 3.437 4.823 5.915 2.148 9.746-2.998 4.293-4.95 8.483-7.35 13.146-.923 1.793-1.804 2.962-1.152 4.798.212.597 2.62 4.145 3.272 4.654 4.17 3.245 9.8-2.927 12.778-5.27 1.05 10.1 1.284 20.137 1.708 30.26.3 7.414 3.18 14.712-2.903 20.132s-11.16 10.98-14.866 18.315c-1.98 3.92-3.756 7.94-5.898 11.778-1.43 2.564-4.45 6.324-2.602 9.342 1.95-1.85 2.53-4.662 4.154-6.748.973 4.328 1.952 9.13 6.53 10.965 5.268 2.1 10.503-1.54 15.17-3.574-1.673 11.572-4.935 22.816-8.188 34.02m-5.385 13.3c-3.615 7.727-6.88 17.043-13.556 22.733-1.466 1.25-7.694 6.126-10.065 5.3-2-.694-.904-4.76-.553-6.5 1.78-8.843 4.856-14.407 12.026-20.048 2.968-2.335 6.778-5.32 10.604-5.895 4.12-.62 2.933 1.433 1.545 4.402M590.195 635.7c-9.374-12.746-22.62-22.652-35.14-32.227-5.67-4.338-11.92-7.6-17.65-11.93-6.478-4.905-13.057-9.637-20.312-13.333-13.757-7-28.764-11.896-41.746-20.185-6.33-4.043-13.257-7.95-19.2-12.487-2.615-1.994-4.924-4.543-7.286-6.827-2.195-2.122-6.908-5.202-7.782-8.307 3.653-.598 5.73-4.142 9-4.504 1.074-.12 7.804 1.66 6.884-1.604 2.44-.06 2.726-.098 4.77-.632.847-.22 1.85.125 2.708-.18 1.3-.462 2.202-1.8 3.526-2.3.94-.364 4.435.043 4.965-.4 1.446-1.236-.1-1.127-.953-2.67 2.8-.072 4.74 1.35 7.56-.16.858-.46 1.584-1.52 2.415-2.07 1.475-.975 2.007.536 3.018-1.487.945 2.8.92 2.02 3.197 1.198 2.27-.818 3.907-1.408 6.492-1.613 6.173-.488 12.37.26 18.515-.178 2.248-.16 4.17-.67 6.403-.377 1.967.26 1.374 1.626 3-.216.38-.428-.848-1.6-.26-2.216.26-.272 1.106-.08 1.427-.22 2.873-1.254 2.886.498 3.396 2.78 1.685-.395 3.404-.752 4.868-1.74-.74-.66-1.977-1.388-1.263-2.594 2.43.92 4.02.496 2.804 3.163 2.445.807 2.902-.245 5.1-.476 1.3-.136 3.112.67 4.194-.367 1.182-1.133-.682-2.363 1.488-3.337a2.14 2.14 0 0 1 .99 1.025c1.172.354.962.816-.632 1.384 4.27 2.213 3.266-.26 5.058-2.878.414-.603 2.27-2.476 3.113-1.57 1.28 1.372-1.334 1.808-.774 3.173.972 2.365 4.363-.666 5.404-1.864.788-.905 1.1-2.64 1.958-3.317 1.18-.94 2.875.512 4.352.253 6.744-1.183 13.114-10.25 8.033-16.32-1.365-1.632-2.52-1.307-4.148-2.337-1.608-1.017-2.5-2.778-3.802-4.232a27.29 27.29 0 0 0-10.676-7.393c-9.557-3.687-19.855-6.377-29.9-8.355-4.648-.917-9.596-2.318-14.355-2.308-2.804.005-7.026 2.185-9.647 1.14-5.095-2.03 2.385-12.425 3.62-15.783 3.626-9.863 6.362-20.38 8.157-30.735.35-2.026.216-4.652.946-6.582.838-2.22 1.018-1.906 2.8-2.087 3.24-.327 6.783 1.372 10.157.785 3.74-.65 7.78-.348 11.555-1.505 1.735-.53 3.344-1.1 4.486-2.573.36-.46-.04-.86.187-1.18.07-.102 1.36-1.493 1.403-1.573a10.23 10.23 0 0 1 .188-2.143c1.308 1.086.664 3.364 2.868 3.417.394-2.43.398-2.918 1.992-4.285-.12.105 1.2-1.018 1.03-.9a3.41 3.41 0 0 1 .476-1.21c.746-.36 1.533-.55 2.36-.573 1.723-1.772 1.007-2.717 1.007-5.102l4.17 2.167c.336-7.066 4.64-10.935 7.497-16.66 1.218-2.44 2.46-4.347 2.75-7.3.168-1.698-.27-3.196.433-4.796.638-1.452 2.064-2.234 2.66-3.816 1.173-3.112.298-7.085.362-10.317.1-4.482.537-8.95.683-13.43.288-8.795-.597-17.833-1.913-26.526-.63-4.158-1.682-8.192-2.5-12.306-.68-3.382-2.307-6.553-2.9-9.7-.242-1.307.132-2.48-.263-3.926-.52-1.9-1.387-3.77-2.033-5.636-1.508-4.36-3-8.713-4.695-13.005-3.287-8.318-7.134-16.386-10.8-24.544-3.516-7.845-6.428-15.933-10.982-23.26-4.486-7.215-9.315-14.3-14.26-21.216-5.15-7.192-11.66-13.373-16.654-20.632-9.377-13.63-22.455-24.86-36.138-34.134-28.235-19.138-58.747-38.246-92.604-44.808-5.103-.988-10.27-1.674-15.47-1.802-3.226-.08-8.573 1.48-11.628.388-3.422-1.223-3.1-5.066-3.965-8.08-1.102-3.875-3.587-6.414-6.408-9.153-2.97-2.884-5.665-6.252-9.37-8.213-3.754-1.986-8.182-2.73-12.34-3.33-3.713-.537-9.26-.035-12.654-1.653-3.1-1.475-1.564-3 1.33-1.747.212-1.276.383-2.1 1.2-3.086.4-.496 2.35-1.2 2.397-1.653.055-.54-1.572-2.084-1.805-2.782-.5-1.504-.216-3.586.378-4.998 2.917 2.593 3.762 3.74 7.02 1.263 1.376-1.046 1.797-1.508 3.4-2.036.432-.143 1.4.3 1.778.05 1.44-.948.115-.724.8-1.845-.172.283 1.036-2.695.98-2.072.146-1.586.616-1.098-.342-3.047-1.875-3.812-6.65-3.968-4.217-8.318.957-1.712 1.8-1.54 2.07-4.023.144-1.334-.035-2.864-.042-4.22-.01-2.776.5-4.72-2.1-6.132-2.5-1.36-4.806.132-5.82-3.24-1.063-3.537.007-8.073-3.824-10.495-2.8-1.77-6.844-.257-9.938-1.122-3.1-.867-5.952-4.04-9.1-1.604-2.236 1.73-3.423 5.988-7.635 3.686-1.9-1.038-2.948-4.524-4.147-6.478-1.9-3.116-3.442-4.24-6.382-1.207-1.812 1.872-5.633 6.428-5.867 9.018-.256 2.86 2.24 4.055-.894 5.747-3.116 1.684-4.865.45-7.394 3.866-2.5 3.4-.567 5.263-3.473 8.506-3.633 4.054-5.567 5.804-5.516 11.266.035 3.746-3.275 6.982-1.344 10.537 2.164 3.983 8.48 5.64 12.3 7.26-1.278 2.362-3.032 3.876-1.54 6.308 1.352 2.202 5.173 2.66 7.542 2.26 1.593-.268 1.65-.027 2.904-1.147.82-.734-.305-1.65 1.386-2.056 1.8-.434 4.676 3.095 5.845 3.977-2.613 3.4-9.8 4.025-13.585 5.744-2.314 1.05-4.44 2.6-6.796 3.536-2.137.85-4.738.653-6.676 1.968-3.347 2.272-4.74 7.9-6.8 11.2-2.322 3.745-4.573 5.485-9.028 6.262-5.557.97-10.033 1.36-15.216 3.78-6.33 2.956-12.568 6.076-18.784 9.263-10.027 5.14-19.34 10.414-28.65 16.63-9.74 6.503-19.214 13.292-28.612 20.087-9.296 6.72-17.1 15-25.175 23.116-6.527 6.57-12.255 13.662-18.758 20.23-7.676 7.756-13.322 17.544-20.44 25.772-3.894 4.5-7.62 8.927-10.063 14.23-1.98 4.298-5.424 8.515-7.723 13.024-2.938 5.766-5.717 11.44-9.015 17.013-1.353 2.287-2.962 4.25-4.4 6.434-1.83 2.797-1.722 5.497-2.214 8.72l-1.54-2.36c-.93 2.035-2.058 4.036-2.865 6.12-.515 1.33-.434 3.216-.95 4.38-.65 1.46-1.44 1.266-2.248 2.482-.865 1.3-1.143 3.047-2.055 4.442-3.94 6.027-5.457 13.676-7.482 20.554-2.716 9.227-2.288 19.832-2.14 29.346.157 10.05.706 20.098 2.217 30.042 1.37 9.005 4.295 17.642 8.876 25.538 3.992 6.88 9.496 10.9 16.547 14.413 3.238 1.618 6.243 1.118 9.64 1.377 3.723.283 6.262 1.294 10.2.404 1.9-.427 2.784-1.803 4.285-2.26.93-.284 1.43.18 2.322.072 1.276-.155 3.93-.78 5.315-.63 4.306.47 3.583 6.98 4.007 10.304.652 5.12 1.13 10.297 2 15.385 1.85 10.702 5.842 20.7 8.2 31.216-10.936 1.334-20.317 3.375-30.567 7.515-10.283 4.152-20.68 5.56-31.502 7.625-10.124 1.93-19.862 5.54-27.966 12.076-3.798 3.063-7.744 6.647-4.955 11.7 1.784 3.226 5 4.046 7.774 5.92.56-.7-1.06-2.214-1.358-2.63 2.333.48 2.262 1.568 3.966 2.516 1.5.828 2.708.8 4.338 1.384 3.98 1.43 5.935 4.998 9.87 6 1.238.315 2.857 1.068 4.122 1.282 1.52.257 2.658-.408 4.2-.127.832.548 1.73.94 2.698 1.174.633-.294 1.26-.605 1.876-.932 2.214.23 3.58 1.622 5.38 2.766.12-1.44-.053-2.94 1.3-3.88.533 1.402-.328 2.3 1.126 3.254 1.842 1.223 4.262-.303 5.9-1.077.466 4.66 11.253 4.384 14.673 4.318 4.735-.1 9.465-1.97 14.242-.922 2.437.534 5.038 1.092 7.464 1.786 2.92.834 6.453 1.58 9.328 2.633 1.143.42 2.544 1.76 3.76 1.67.97-.073 1.228-1.502 2.356-1.46 1.276.047 1.705 1.468 2.8 1.897 1.653.64 3.173-.577 4.744.037.565.22 1.33 1.167 2.053 1.476 1.098.468 3.27.474 4.5.7 1.73.32 3.28.105 4.764.2 1.196.086 1.17.9 1.742.943.656.06 1.8-2.198 2.68-2.528 1.284-.482 3.616.666 4.925.868-9.5 12.862-20.93 24.23-33.33 34.184-13.378 10.738-27.076 21.462-41.422 30.88-13.025 8.552-25.633 15.948-35.73 28.02-8.515 10.18-22.07 21.07-19.98 35.824C3.8 675 19.797 681 32.622 683.825c16.13 3.54 32.737 2.115 48.913 4.105 6.898.85 14.562.396 21.506-.327 8.2-.854 15.23-6.206 22.28-10.076 12.682-6.962 23.525-16.276 36.017-23.455 15.64-9 31.117-18.514 48.264-24.534 7.977-2.8 16.2-5.997 22.625-11.758.957-.857 1.67-2.15 2.753-2.858 1.84-1.2 2.332.017 3.4-.347.82-.28 1.617-1.167 2.327-1.433 1.8-.674 2.602-.396 4.617-.396-1.73-.997-3.3-3.567-1.517-5.66 3.073-3.587 3.602 2.145 4.757 3.473.978-1.257.603-2.377.353-3.806l2.482 1.638c-.57-2.765-.028-5.312 1.437-7.722 1.35-2.22 1.684-1.908 2.057-4.986 4.196 3.83 5.016-5.467 5.394-8.857.366-3.287.004-5.647 2.166-8.522 2.32-3.086 5.85-5.037 8.796-7.435 4.654-3.8 9.774-8.574 16.2-4.94 5.08 2.87 7.845 9.902 12.612 13.515 2.9 2.193 5.943 2.414 7.786 5.813 1.5 2.748 1.974 6.037 3.38 8.858 3.408 6.84 8.314 14.665 13.9 19.9 5.2 4.883 11.898 4.858 17.994 7.887 6.035 3 12.306 6.248 18.695 8.42 6.977 2.374 14.5 3.383 21.294 6.258 3.494 1.48 6.62 3.707 10.144 5.123 3.802 1.527 7.807 2.603 11.66 4.002 15.263 5.544 30.2 12.343 46.236 15.416 7.112 1.362 13.696 5.065 20.86 5.845 3.073.335 5.58.758 8.586 1.527 4.717 1.205 3.718 1.847 5.457 5.78 2.86 6.475 9.84 2.64 15.223 2.803 8.615.26 17.098-1.133 25.7-1.2 15.042-.115 29.526-1.8 44.077-6.75 14.608-4.958 31.24-16.906 19.1-33.414M416.32 129.775c.206.206.7.33 0 0M151.363 405.573c3.267-3.3 17.167-2.642 18.218 3.28 1.17 6.6-11.25 16.595-15.794 19.395-5.85 3.602-13 4.277-11.953-4.768.784-6.832 4.877-13.194 9.53-17.908m11.48-6.815c.424 1.83-2.7 1.208-3.56.774-.405-.833 3.136-2.612 3.56-.774m-23.97 12.123c2.773.25 5.95-4.2 8.04-5.714.925 1.43-5.172 9.284-5.843 11.076-1.675 4.478-2.607 10.136-.324 14.603 6.674 13.053 23.754-5.587 28.026-12.097 3-4.554 5.058-10.2.837-14.663-1.503-1.6-3.986-2.03-5.383-3.54-1.838-1.986-.4-4.552-4.087-4.118-2.55.3-5.6 2.6-8.1 3.432-2.988 1.003-5.674 2.042-8.282 3.9-.588.42-8.322 6.814-4.897 7.122m195.96 4.38c-1.742 8.968-10.63 18.168-19.98 18.525-9.312.355-12.327-9.4-10.683-17.177 1.402-6.632 7.134-18.154 15.312-16.884 6.43.997 16.844 7.85 15.35 15.536m-5.93-15c-5.904-4.568-14.06-6.682-20.904-3.057-2.244 1.188-11.2 6.43-8.475 9.98 3.675-2.847 6.847-6.8 11.622-7.747-.803 3.702-5.4 7.032-7.005 10.637-1.9 4.2-2.922 9.03-2.613 13.66.55 8.237 6.068 14.637 14.6 13.504 7.82-1.037 14.656-7.03 18.387-13.767 4.98-8.998 2.174-17.176-5.62-23.207m-54.83 35.374c-4.204 6.225-10.614 12.08-18.025 14.002-9.594 2.488-6.9-5.44-4.032-11.13 2.535-5.03 6.884-13.685 13.507-13.638 2.248.015 6.435 1.102 8.404 2.304 3.883 2.37 2.36 5.188.146 8.463m-8.955-13.68c1.5-1.68 8.188-8.885 9.084-3.27 1.918-2.224.405-4.07-2.05-4.304-2.963-.283-6.2 3.015-8.34 4.655-4.4 3.372-7.787 6.825-10.703 11.553-3.214 5.212-11.412 16.992-4.238 22.163 7.754 5.6 19.04-4.734 23.896-10.058 3.105-3.406 7.218-8.407 6.037-13.4-1.45-6.134-8.585-6.778-13.685-7.338M232.02 321.656c-4.34 4.95-13.153 12.164-20.416 11.314-6.624-.775-4.038-8.2-1.694-11.808 3.52-5.408 8.24-10.485 15.057-10.78 2.943-.127 6.756-.068 9.036 2.16 3.112 3.044.3 6.5-1.983 9.114m-.46-13.754c-5.083-1.756-7.08-2.426-12.02.366-3.967 2.242-7.485 5.4-10.208 9-4.074 5.386-8.183 17.5 2.28 19.016 11.474 1.663 38.77-21.885 19.95-28.392"/><path d="M247.2 338.8c-3.3 3.372-7.422 6.123-12.125 7.062 2-4.44 6.433-14.14 11.7-15.5 2.427-.623 5.194.193 4.994 2.958-.144 2-3.268 4.14-4.57 5.47m4.25-11.736c-2.733-1.37-1.872-2.306-5.052-1.23-2.506.846-5.666 2.315-7.753 4.007-1.14.923-4.683 4.197-4.25 5.864.787 3.028 3.43-1.612 4.125-2.504 1.2.97-4.9 9.686-5.262 11.12-1.35 5.342 2.84 5.906 6.95 4.16 5.54-2.356 21.95-16.05 11.24-21.415m81.246 143.73c.4-3.54 1-7.285 4.24-9.273 2.928-1.793 5.96-1.533 6.394 2.143.403 3.414-2.942 9.477-5.647 11.34-3.767 2.594-4.493-.64-4.988-4.2m4.84 8.058c7.735-4.526 12.6-25.283-1.648-19.465-8.103 3.306-5.123 23.427 1.648 19.465m-66.06-86.075c1.22-2.5 2.615-3.33 5.088-4.424l-5.088 4.424m1.784-6.16c-1.75 1.758-5.766 4.438-5.204 7.457.514 2.756 2.618 2.598 4.527 1.738 4.004-1.8 6.232-9.68 10.42-10.417-4.645-2.944-5.73-2.807-9.742 1.22m.615-156.48l.604 25.172c.065 2.95-.64 7.153.246 9.978.4 1.244 3.924 6.638 5.178 6.987 4.387 1.22 2.82-9.777 2.85-12.486l-.064-27.42c-.02-4.7 1.3-44.2-4.8-44-1.053.034-3.645 4.548-4.036 5.453-1.227 2.842-.776 7.056-.747 10.085.083 8.74.537 17.492.77 26.23m36.992 24.46c.344 2.32.163 6.2 2.775 7.4 2.272 1.046 3.143-.198 3.993-2.142 1.954-4.472 1.25-11.3 1.213-15.933-.072-9.164-1.104-18.3-1.817-27.418-.314-4.006.337-8.03-.163-12.22-.22-1.84-.44-9.24-3.848-8.894-3.083.3-2.806 8.067-2.973 10.065-1.398 16.633-1.64 32.548.82 49.152m145.52 191c-1.307 6.68-22.626 29.944-27.994 16.933-3.185-7.72 3.72-16.123 9.102-20.6 3.332-2.766 7.494-5.48 12.035-4.64 3.855.7 7.686 4.057 6.857 8.3m-11-11.983c-1.506.356-14.093 9.194-14.208 9.078-1.093-1.097 6.845-12.93 7.662-13.965 6.73-8.527 11.197-2.07 15.406 4.632-.896-4.003-3.362-9.815-7.483-11.508-5.202-2.137-9.26 3.138-11.763 6.932-3.538 5.36-5.5 11.182-7.455 17.23-.937 2.885-2.005 5.5-3.592 8.102-1.567 2.567-4.3 5.397-3.904 8.644 2.227-1.238 3.4-3.662 4.814-5.66 1.565.634 1.028 5.626 1.345 6.898.8 3.193 2.98 5.7 6.356 6.24 6.3 1.023 13.077-4.796 17.282-8.747 4.43-4.164 9.2-9.872 9.162-16.28-.04-6.696-6.626-13.253-13.623-11.597M462.427 326.3c-3.568 5.46-9.83 12.008-16.454 13.276-4.863.93-8.07-2.673-6.117-7.538 1.65-4.112 7.272-6.7 10.957-8.517 2.923-1.436 16.552-4.778 11.614 2.78m-2.625-8.932c-7.3-.276-13.204 5.008-18.655 9.226 1.23-4.844 4.015-10.115 7.936-13.27 5.335-4.292 10.393-1.627 16 .52-1.386-4.373-7.606-5.946-11.57-5.328-5 .782-8.613 5.06-11.147 9.197-3.022 4.936-4.056 10.754-7.613 15.384-1.628 2.12-11.714 10.05-9.43 13.3l11.3-11.996c.977 4.726 2.054 10.108 8.088 9.648 4.82-.368 10.314-4.464 13.838-7.595 4.55-4.044 13.507-18.613 1.24-19.077m-102.375 46.62c-3.096 1.424-9.912 3.36-11.643-.92-2.405-5.94 5.333-16.36 9.017-20.32 2.266-2.436 3.803-3.696 6.962-2.12 2.52 1.26 6.227 4.835 7.195 7.585 2.078 5.902-6.687 13.545-11.53 15.772m7.104-28.532c2.52.568 2.83 3.77-.322 2.54-2.363-.92-2.912-3.27.322-2.54m3.165 4.5c-.94-2.872.974-7.377-3.663-7.584-2.628-.117-7.44 2.554-9.735 3.64-3.18 1.505-6.172 3.802-7.832 7.037-1.538 2.997-.44 3.787 1.904 1.3.286.195-5.302 14.6-5.35 16.053-.218 6.6 4.454 10.947 11.016 9.777 6.03-1.075 11.466-6.007 14.785-10.985 1.68-2.52 3.058-5.404 3.184-8.5.194-4.734-2.962-6.637-4.308-10.747m28.925-2.4c-2.544-4.9 3.352-13.147 8.63-10.735 10.992 5.023-5.292 17.16-8.63 10.735zm9.874-6.397c-1.18.047-8.636 2.928-7.54 4.88 1.506 2.68 6.95-3.803 7.54-4.88zM45.946 322.1c-.295-2.087-4.973.943-4.946 2.287.774-1.548 5.56 2.062 4.946-2.287m255.86-157.728c5.956-.438-1.632-30.486-5.973-27.83-4.705 2.88.508 28.23 5.973 27.83m11.124-14.032c5.58.8 4.693-12.014 1.692-14.307-5.54-4.233-8.466 13.337-1.692 14.307"/></g><path d="M131.576 498.14l21.966 1.627 10.576-8.136 18.712 6.508 74.847 21.966 24.407 27.66 40.678-16.27 29.288-6.508 41.898-32.746 9.66 8.34 61.363-.012 26.463-31.065 10.3-30.958 5.898-32.542 1.83-41.898-2.034-44.95-4.678-22.983-13.22-26.847-33.356-12.407-39.05 10.373-43.73 30.305-57.56 12.6-37.017-1.017-24.203-9.966-26.44-17.898-39.05-21.966-25.424-7.73-39.458 5.898s-9.356 7.12-10.17 8.542-12.203 15.864-12.203 15.864l-4.678 11.186-7.12 54.305 4.475 50.034 4.88 37.22 17.492 52.068z" fill-opacity="0" stroke="#000"/><path d="M291.377 61.436c-.446.002-.734.132-1.057.164-.394.04-.648.104-.942.162-.31-.05-1.032-.228-2.266.183-1.35.45-4.684-.135-8.682 1.624-1.244.52-2.1 1.67-2.265 3s.425 2.657 1.517 3.448 2.526.93 3.75.363c1.15-.507 3.81-.19 7.318-1.195.302.057.833.15 1.837-.1-.015.004.187-.03.343-.057-.15-.026-.298-.044-.876-.333.577.288.716.28.932.323l.083-.013c.045-.004.034.033.06.064.05.01.155.06.2.073l1.004.218c.672.13.8.265 2.055.265 1.344.02 2.594-.687 3.27-1.848s.677-2.596 0-3.757-1.927-1.867-3.27-1.848c.848 0-.173-.04-.643-.13l-.61-.132c-.142-.035-.364-.184.242.12-.957-.48-1.562-.606-2.01-.604z" dominant-baseline="auto" fill="#094"/></svg>