<svg xmlns="http://www.w3.org/2000/svg" xmlns:xlink="http://www.w3.org/1999/xlink" width="1080" height="1080" viewBox="0 0 285.75 285.75"><g transform="matrix(7.837889 0 0 7.837889 -1393.364 -1821.769)"><g transform="matrix(.190286 0 0 .190286 369.86775 489.70702)"><rect transform="matrix(.591129 0 0 .591129 -727.00466 -916.66679)" ry="47.956" y="-736.529" x="-477.904" height="324.115" width="324.115" fill="#f9f9f9"/><rect width="191.593" height="191.593" x="-1009.507" y="-1352.05" ry="28.348" fill="#fff"/></g><g transform="matrix(.180253 0 0 .180253 316.42498 318.52787)"><path d="M-719.8-429.156c-6.178 0-11.258 5.08-11.258 11.258v83.828c0 6.178 5.08 11.256 11.258 11.256h13.29c0-.344.055-.686.164-1.01.747-2.193 2.132-4.108 3.956-5.534H-719.8a4.66 4.66 0 0 1-4.711-4.711v-62.517h113.21v3.303a18.01 18.01 0 0 1 .805-.036c.073 0 .125.003.146.007.015 0 .02 0 .032 0a3.14 3.14 0 0 1 .313.027c.992.04 1.992.176 2.98.458l2.272.637V-417.9c0-6.178-5.08-11.258-11.258-11.258zm0 6.547h103.787a4.66 4.66 0 0 1 4.711 4.711v14.764H-724.5V-417.9c0-.165.008-.328.024-.488.237-2.403 2.212-4.223 4.687-4.223z" dominant-baseline="auto" fill="#fc0"/><g fill="none" stroke="#fc0" stroke-width="2.987" stroke-linecap="round" stroke-linejoin="round"><use xlink:href="#B"/><use xlink:href="#B" x="21.495"/><use xlink:href="#B" x="10.747"/></g><g stroke="#000" stroke-width=".773"><path d="M-715.92-388.174q0 .27-.27.27-.092 0-.385-.263-.293-.27-.562-.27-.495 0-1.32.617-.312.232-1.13.965v2.18q.513 0 .464-.006.312.037.312.263 0 .257-.342.257h-1.375q-.348 0-.348-.257 0-.226.312-.263-.05.006.464.006v-3.63q-.507 0-.47.006-.305-.037-.305-.27 0-.257.342-.257h.947v1.295q.74-.666 1.106-.916.733-.507 1.314-.507.312 0 .758.244.49.27.49.532z"/><use xlink:href="#C"/><use xlink:href="#C" x="7.014"/><path d="M-694.72-384.807q0 .3-.782.605-.605.238-1.143.238-.764 0-1.277-.4-.562-.428-.562-1.167l-.006-2.78h-1.252q-.342 0-.342-.263 0-.257.342-.257h1.252l.006-2.15q0-.342.257-.342.263 0 .263.342l-.006 2.15h2.48q.342 0 .342.263 0 .257-.342.257h-2.48l.006 2.78q0 .5.403.788.36.257.88.257.226 0 .82-.16.128-.03.507-.238.354-.2.4-.2.244 0 .244.257zm7.57-1.963q0 .257-.342.257h-.898v-.672q-1.008.85-2.157.85-.727 0-1.216-.354-.556-.397-.556-1.1 0-.855.83-1.307.666-.367 1.595-.367.66 0 1.503.17v-.75q0-.6-.703-1.08-.654-.446-1.362-.446-1.002 0-1.717 1.002-.648.898-.648 1.888v2.022q0 1.008.66 1.85.72.923 1.76.923 1.344 0 1.863-.434.116-.098.202-.098.25 0 .25.244 0 .2-.367.428-.574.373-2.022.373-1.228 0-2.083-1.088-.776-.996-.776-2.2v-2.053q0-1.198.782-2.236.86-1.143 2.07-1.143.86 0 1.7.684.85.678.85 1.362l-.006 3.012h.434q.342 0 .342.263zm-1.24-1.033v-1.02q-.63-.177-1.454-.177-.715 0-1.277.25-.733.33-.733.96 0 .5.4.77.348.226.88.226 1.13 0 2.175-1.008z"/><use xlink:href="#C" x="28.741"/><path d="M-672.36-386.53q0 1.07-.758 1.815-.75.745-1.827.745-1.326 0-2.114-1.08l-.006 3.342q.507 0 .47-.006.305.037.305.263 0 .257-.342.257h-1.375q-.348 0-.348-.257 0-.226.305-.263-.037.006.47.006v-6.592h-.434q-.342 0-.342-.263 0-.257.342-.257h.947v.813q.788-1.088 2.12-1.088 1.075 0 1.827.745.758.745.758 1.82zm-.464 0q0-.88-.623-1.485-.617-.6-1.503-.6-.88 0-1.503.6-.617.605-.617 1.485 0 .874.623 1.485.623.6 1.497.6.88 0 1.503-.605.623-.6.623-1.5zm6.494 1.05q0 .77-.776 1.18-.623.33-1.46.33-1.1 0-1.796-.556 0 .38-.232.38-.232 0-.232-.312v-.953q0-.312.232-.312.177 0 .238.263.086.367.122.415.44.617 1.65.617.63 0 1.13-.214.66-.287.66-.837 0-.666-.984-.892-.916-.165-1.827-.33-.984-.28-.984-1.094 0-.654.697-1.014.556-.28 1.283-.28.96 0 1.558.47 0-.305.232-.305.238 0 .238.312v.794q0 .312-.238.312-.165 0-.232-.275-.092-.354-.342-.532-.44-.305-1.198-.305-.513 0-.947.17-.58.232-.58.672 0 .5.72.666l1.503.244q.94.183 1.3.648.263.342.263.74zm6.868-3.458q0 .257-.342.257h-1.13l-.1 1.613h.984q.342 0 .342.257 0 .257-.342.257h-1.02l-.202 2.86q-.024.33-.257.33-.28 0-.257-.367l.202-2.823h-1.16l-.196 2.86q-.024.33-.257.33-.263 0-.263-.257l.202-2.933h-1.07q-.342 0-.342-.257 0-.257.342-.257h1.106l.1-1.613h-.953q-.348 0-.348-.257 0-.257.348-.257h1l.202-2.86q.024-.33.257-.33l.1.024q.153.098.153.226l-.202 2.94h1.155l.202-2.86q.024-.33.257-.33.263 0 .263.25l-.208 2.94h1.094q.342 0 .342.257zm-1.986.257h-1.155l-.116 1.613h1.16zm14.248 7.686q0 .257-.324.257h-6.86q-.324 0-.324-.257 0-.257.324-.257h6.86q.324 0 .324.257z"/></g><path d="M-670.473-315.135c-4.298.928-8.547-1.813-9.475-6.1s1.812-8.546 6.108-9.475 8.55 1.8 9.478 6.107a7.99 7.99 0 0 1-6.1 9.48m24.574-5.212c-.228-1.055-1.04-1.94-2.162-2.207l-3.446-.815c-.058-2.7-.653-5.388-1.725-7.844l2.776-2.184c1.255-.986 1.475-2.8.487-4.064l-2.68-3.404c-.476-.603-1.17-.994-1.932-1.084s-1.53.123-2.132.6l-2.724 2.147c-2.164-1.692-4.607-2.92-7.268-3.65l.016-3.375c.006-1.593-1.282-2.9-2.88-2.9l-4.33-.02c-1.597-.006-2.9 1.28-2.907 2.88l-.018 3.236a20.5 20.5 0 0 0-7.584 3.485l-2.427-1.95a2.9 2.9 0 0 0-2.125-.623 2.89 2.89 0 0 0-1.943 1.066l-2.714 3.375c-1.002 1.25-.802 3.07.442 4.067l2.342 1.885c-1.213 2.56-1.874 5.287-1.968 8.103l-2.883.623c-1.563.337-2.555 1.878-2.217 3.44l.915 4.233c.338 1.56 1.878 2.556 3.44 2.218l2.885-.623a20.42 20.42 0 0 0 5.278 6.673l-1.336 2.7a2.9 2.9 0 0 0 1.311 3.876l3.885 1.918c.7.34 1.483.4 2.2.147s1.328-.772 1.667-1.46l1.384-2.8c2.755.562 5.56.55 8.337-.03l1.383 2.942c.327.696.915 1.23 1.64 1.5a2.89 2.89 0 0 0 2.212-.106l3.92-1.847c1.446-.68 2.065-2.403 1.386-3.848l-1.443-3.063a20.61 20.61 0 0 0 5.054-6.36l3.385.802a2.9 2.9 0 0 0 3.482-2.151l.997-4.215c.104-.44.102-.872.014-1.28m30.134-41.87a10.37 10.37 0 0 1 9.763 10.912c-.32 5.702-5.217 10.083-10.92 9.764a10.37 10.37 0 0 1-9.762-10.92 10.37 10.37 0 0 1 10.918-9.756m1.65-20.508l-1.137 4.044c-3.682-.152-7.28.436-10.698 1.755l-2.366-3.284a3.75 3.75 0 0 0-5.25-.848l-4.565 3.294a3.76 3.76 0 0 0-.849 5.248l2.283 3.164a26.58 26.58 0 0 0-5.258 9.47l-3.826-.214a3.76 3.76 0 0 0-3.962 3.543l-.314 5.618a3.76 3.76 0 0 0 3.543 3.962l3.83.214a26.5 26.5 0 0 0 4.309 10.183v.001l-2.606 2.924c-.665.746-1.002 1.7-.946 2.72a3.76 3.76 0 0 0 1.251 2.59l4.202 3.74a3.76 3.76 0 0 0 5.307-.304l2.702-3.032c3.264 1.654 6.78 2.612 10.448 2.84l.718 4.16a3.77 3.77 0 0 0 1.537 2.431c.815.573 1.825.8 2.806.63l5.547-.962a3.76 3.76 0 0 0 3.06-4.34l-.746-4.335a26.76 26.76 0 0 0 8.522-6.222l3.96 2.17a3.76 3.76 0 0 0 2.862.311 3.75 3.75 0 0 0 2.24-1.802l2.703-4.934a3.74 3.74 0 0 0 .456-1.593 3.76 3.76 0 0 0-1.947-3.508l-4.034-2.208a27.03 27.03 0 0 0 .544-10.421l4.23-1.778a3.76 3.76 0 0 0 2.007-4.924l-2.177-5.183c-.4-.92-1.123-1.647-2.048-2.023a3.74 3.74 0 0 0-2.875.014l-4.153 1.747a26.75 26.75 0 0 0-7.843-7.074l1.185-4.22c.273-.963.15-1.988-.34-2.857a3.77 3.77 0 0 0-2.261-1.781l-5.416-1.52c-1.996-.57-4.067.596-4.632 2.594" fill="none" stroke="#28aa49" stroke-width="5.753"/></g></g><defs ><path id="B" d="M-641.915-412.732a3.144 3.144 0 0 1-6.284.146 3.144 3.144 0 0 1 6.271-.437"/><path id="C" d="M-708.908-386.53q0 1.07-.758 1.815-.75.745-1.827.745-1.075 0-1.833-.74-.758-.745-.758-1.82 0-1.075.758-1.82.758-.745 1.833-.745 1.075 0 1.827.745.758.745.758 1.82zm-.464 0q0-.88-.623-1.485-.617-.61-1.503-.61-.88 0-1.503.61-.617.605-.617 1.485 0 .874.623 1.485.623.61 1.497.61.88 0 1.503-.605.623-.61.623-1.49z"/></defs></svg>