<svg xmlns="http://www.w3.org/2000/svg" width="1080" height="1080" viewBox="0 0 285.75 285.75"><g transform="matrix(7.837889 0 0 7.837889 -775.51168 -1292.0713)"><g transform="matrix(.190286 0 0 .190286 291.03883 422.12534)"><rect transform="matrix(.591129 0 0 .591129 -727.00466 -916.66679)" ry="47.956" y="-736.529" x="-477.904" height="324.115" width="324.115" fill="#f9f9f9"/><rect width="191.593" height="191.593" x="-1009.507" y="-1352.05" ry="28.348" fill="#fff"/></g><path d="M103.63 172.57c-.925 0-1.687.762-1.687 1.687s.762 1.687 1.687 1.687a1.67 1.67 0 0 0 .867-.243.57.57 0 0 0 .048.043l5.025 4.053a.57.57 0 0 0 .357.126h1.292a5.99 5.99 0 0 1 .234-1.137h-1.325l-4.912-3.96c.065-.178.1-.37.1-.57 0-.925-.762-1.687-1.687-1.687zm27.087 0c-.925 0-1.687.762-1.687 1.687a1.66 1.66 0 0 0 .101.57l-.043.032-4.87 3.927h-1.327a5.99 5.99 0 0 1 .234 1.137h1.294a.57.57 0 0 0 .357-.126l5.025-4.053a.57.57 0 0 0 .049-.043 1.67 1.67 0 0 0 .867.243c.925 0 1.687-.762 1.687-1.687s-.762-1.687-1.687-1.687zm-27.087 1.137a.54.54 0 0 1 0 1.099.54.54 0 1 1 0-1.099zm27.087 0a.54.54 0 0 1 0 1.099.54.54 0 1 1 0-1.099zm-26.614 2.493c-.925 0-1.687.762-1.687 1.687s.762 1.687 1.687 1.687a1.67 1.67 0 0 0 .95-.297l3.876 3.047a.57.57 0 0 0 .351.121h2.215a5.99 5.99 0 0 1-.26-1.137h-1.76l-3.755-2.95a1.66 1.66 0 0 0 .068-.47c0-.925-.762-1.687-1.687-1.687zm26.14 0c-.925 0-1.687.762-1.687 1.687 0 .163.024.32.068.47l-3.755 2.95h-1.755a5.99 5.99 0 0 1-.258 1.137h2.21a.57.57 0 0 0 .351-.121l3.876-3.047a1.67 1.67 0 0 0 .949.296c.925 0 1.687-.762 1.687-1.687s-.762-1.687-1.687-1.687zm-26.14 1.137a.54.54 0 0 1 .55.55.56.56 0 0 1-.06.254.57.57 0 0 0-.084.121c-.1.108-.243.175-.406.175a.54.54 0 1 1 0-1.099zm26.14 0a.54.54 0 1 1 0 1.099c-.162 0-.304-.066-.404-.172a.57.57 0 0 0-.086-.124.56.56 0 0 1-.06-.253.54.54 0 0 1 .55-.55zm-26.14 4.923c-.925 0-1.687.762-1.687 1.687s.762 1.687 1.687 1.687c.726 0 1.35-.47 1.587-1.118h6.136l.48-.468a5.99 5.99 0 0 1-.408-.669h-6.21c-.236-.65-.86-1.118-1.587-1.118zm26.14 0c-.726 0-1.35.47-1.586 1.118h-6.207a5.99 5.99 0 0 1-.41.67l.472.467h6.144c.236.65.86 1.118 1.586 1.118.925 0 1.687-.762 1.687-1.687s-.762-1.687-1.687-1.687zm-26.14 1.137a.54.54 0 1 1 0 1.099.54.54 0 0 1 0-1.099zm26.14 0a.54.54 0 1 1 0 1.099.54.54 0 0 1 0-1.099zm-21.148 1.682a.57.57 0 0 0-.357.126l-4.762 3.84a1.68 1.68 0 0 0-1.134-.443c-.925 0-1.687.762-1.687 1.687s.762 1.687 1.687 1.687 1.687-.762 1.687-1.687c0-.073-.005-.146-.015-.217l4.78-3.857h1.332c.204-.4.443-.78.716-1.137zm13.9 0c.276.356.52.737.725 1.137h1.33l4.78 3.857c-.01.07-.015.143-.015.217 0 .925.762 1.687 1.687 1.687s1.687-.762 1.687-1.687-.762-1.687-1.687-1.687a1.68 1.68 0 0 0-1.134.443l-4.762-3.84a.57.57 0 0 0-.357-.126zm-20.153 4.66a.54.54 0 0 1 0 1.099.54.54 0 1 1 0-1.099zm28.662 0a.54.54 0 0 1 0 1.099.54.54 0 1 1 0-1.099z" dominant-baseline="auto" fill="#fc0"/><path d="M121.655 191.142c-.807.467-2.277.73-3.827.786l1.48-1.808-1.432-3.28 1.184-1.628.228-.104.375.32c1.418 1.202 2.13 1.806 2.408 5.312 0 .082-.128.238-.415.405zm-8.96.001c-.287-.167-.416-.323-.42-.34.28-3.57.992-4.174 2.41-5.376l.364-.3.21.095 1.184 1.628-1.432 3.28 1.48 1.807c-1.538-.06-2.993-.32-3.796-.783zm7.845-10.57c0 1.863-1.515 3.38-3.38 3.38s-3.38-1.516-3.38-3.38 1.516-3.38 3.38-3.38 3.38 1.516 3.38 3.38zm.18 3.605l-.042-.036c.923-.91 1.496-2.17 1.496-3.57a5.01 5.01 0 1 0-10.023 0c0 1.404.58 2.673 1.51 3.582l-.027.023c-1.692 1.435-2.665 2.443-2.986 6.558 0 .506.214 1.23 1.232 1.818 1.188.686 3.242 1.03 5.297 1.03s4.11-.343 5.296-1.03c1.018-.588 1.23-1.313 1.23-1.882-.318-4.05-1.3-5.06-2.983-6.494" fill="#28aa49"/></g></svg>