<svg xmlns="http://www.w3.org/2000/svg" width="1080" height="1080" viewBox="0 0 285.75 285.75"><g transform="matrix(7.837889 0 0 7.837889 -981.46226 -1821.769)"><g transform="matrix(.190286 0 0 .190286 317.31511 489.70702)"><rect width="324.115" height="324.115" x="-477.904" y="-736.529" ry="47.956" transform="matrix(.591129 0 0 .591129 -727.00466 -916.66679)" fill="#f9f9f9"/><rect ry="28.348" y="-1352.05" x="-1009.507" height="191.593" width="191.593" fill="#fff"/></g><g transform="matrix(.162619 0 0 .162619 280.1626 324.3773)"><path d="M-789.423-503.004c-.073-1.294-1.275-2.215-2.545-1.977l-2.084.363c-4.197.674-8.443 1.033-12.693.984-3.563-.04-7.13-.36-10.634-1.01-2.923-.542-5.807-1.318-8.604-2.33a49.01 49.01 0 0 1-6.611-2.971 42.12 42.12 0 0 1-4.653-2.933 33.12 33.12 0 0 1-1.6-1.24c-.51-.412-.99-.936-1.682-.974-.65-.03-1.226.36-1.702.746-.848.684-1.7 1.352-2.593 1.977-1.6 1.1-3.252 2.09-4.973 2.967-2.225 1.14-4.536 2.098-6.906 2.89a54.82 54.82 0 0 1-8.879 2.142c-3.6.567-7.246.795-10.886.732-4.338-.068-8.662-.548-12.926-1.343-1.27-.237-2.467.68-2.55 1.972-.687 11.245-2.47 58.26 14.056 78.945 17.39 21.758 32.435 30.404 36.27 32.314a2.13 2.13 0 0 0 1.886.009c3.857-1.88 18.994-10.435 36.264-32.324 16.39-20.783 14.7-67.696 14.046-78.94" fill="none" stroke="#28aa49" stroke-width="10"/><path d="M-840.914-457.283c1.003 0 1.87-.366 2.603-1.1s1.1-1.6 1.1-2.603v-18.5c0-1.003-.367-1.87-1.1-2.602s-1.6-1.1-2.603-1.1-1.87.367-2.603 1.1-1.1 1.6-1.1 2.602v18.5c0 1.002.366 1.87 1.1 2.603s1.6 1.1 2.603 1.1zm19.882-9.92c-1.552-3.104-3.735-5.707-6.55-7.808a3.59 3.59 0 0 0-2.747-.723c-1.022.135-1.832.617-2.43 1.446a3.52 3.52 0 0 0-.708 2.733c.144 1.013.622 1.827 1.432 2.444 1.9 1.427 3.35 3.172 4.38 5.235a14.54 14.54 0 0 1 1.547 6.593c0 2.006-.4 3.92-1.17 5.74s-1.836 3.398-3.167 4.728-2.906 2.386-4.728 3.166a14.42 14.42 0 0 1-5.74 1.172 14.42 14.42 0 0 1-5.74-1.172c-1.822-.78-3.398-1.836-4.728-3.166s-2.386-2.906-3.166-4.728-1.17-3.735-1.17-5.74a14.55 14.55 0 0 1 1.547-6.593c1.03-2.063 2.492-3.808 4.38-5.235a3.6 3.6 0 0 0 1.432-2.444c.145-1.012-.1-1.923-.7-2.733-.598-.83-1.402-1.3-2.415-1.446a3.65 3.65 0 0 0-2.762.723c-2.815 2.1-4.998 4.704-6.55 7.808a21.88 21.88 0 0 0-2.328 9.92 21.61 21.61 0 0 0 1.764 8.618c1.176 2.738 2.757 5.1 4.743 7.085s4.347 3.567 7.085 4.742a21.6 21.6 0 0 0 8.618 1.765 21.6 21.6 0 0 0 8.618-1.765c2.738-1.175 5.1-2.756 7.086-4.742s3.566-4.347 4.742-7.085a21.61 21.61 0 0 0 1.764-8.618c0-3.5-.775-6.815-2.327-9.92z" fill="#fc0" stroke="#fc0" stroke-width="1.058"/></g></g></svg>