<svg xmlns="http://www.w3.org/2000/svg" width="1080" height="1080" viewBox="0 0 285.75 285.75"><g transform="matrix(10.722795 0 0 10.722795 -667.71724 -1299.0216)"><g transform="matrix(.139091 0 0 .139091 202.6837 309.20316)"><rect transform="matrix(.591129 0 0 .591129 -727.00466 -916.66679)" ry="47.956" y="-736.529" x="-477.904" height="324.115" width="324.115" fill="#f9f9f9"/><rect width="191.593" height="191.593" x="-1009.507" y="-1352.05" ry="28.348" fill="#fff"/></g><g transform="matrix(.118868 0 0 .118868 19.631131 175.62048)"><path d="M498.372-297.14c-4.963 2.87-14 4.48-23.535 4.832l9.098-11.12-8.807-20.178 7.28-10.01c.477-.196.938-.42 1.405-.637l2.303 1.962c8.722 7.392 13.102 11.105 14.81 32.663 0 .506-.788 1.465-2.554 2.49zm-55.104.005c-1.766-1.028-2.56-1.987-2.574-2.098 1.72-21.954 6.102-25.668 14.83-33.06l2.238-1.907c.427.196.848.4 1.285.582l7.28 10.01-8.807 20.178 9.093 11.1c-9.46-.366-18.407-1.972-23.344-4.817zm48.24-65c0 11.456-9.32 20.78-20.78 20.78s-20.78-9.324-20.78-20.78 9.324-20.78 20.78-20.78 20.78 9.324 20.78 20.78zm1.1 22.17l-.26-.22c5.676-5.6 9.198-13.353 9.198-21.95 0-17.022-13.795-30.816-30.816-30.816s-30.816 13.795-30.816 30.816c0 8.636 3.563 16.434 9.29 22.03l-.166.142c-10.408 8.822-16.39 15.024-18.36 40.326 0 3.11 1.315 7.567 7.577 11.18 7.306 4.22 19.937 6.328 32.573 6.328 12.63 0 25.266-2.108 32.568-6.328 6.258-3.618 7.572-8.074 7.557-11.572-1.957-24.9-7.934-31.112-18.34-39.934" fill="#28aa49"/><g fill="#fc0"><path d="M387.686-362.445a61.8 61.8 0 0 1 15.677-41.15 4 4 0 0 0-.326-5.643c-1.647-1.47-4.174-1.326-5.643.326-11.416 12.812-17.7 29.313-17.7 46.468a69.76 69.76 0 0 0 17.7 46.463 3.97 3.97 0 0 0 2.986 1.344c.945 0 1.894-.338 2.657-1.015 1.647-1.465 1.794-3.992.326-5.64-10.108-11.356-15.677-25.967-15.677-41.154m17.554.001c0-11.052 4.2-21.55 11.833-29.56a4 4 0 0 0-.139-5.652c-1.6-1.52-4.13-1.46-5.652.134-9.054 9.5-14.04 21.962-14.04 35.077 0 13.107 4.984 25.564 14.04 35.073.785.823 1.842 1.24 2.895 1.24a4.03 4.03 0 0 0 2.757-1.096c1.6-1.526 1.66-4.057.14-5.656a42.68 42.68 0 0 1-11.833-29.56m25.94-16.265a4 4 0 0 0-5.231-6.051c-6.497 5.626-10.225 13.757-10.225 22.317s3.727 16.687 10.225 22.313a3.99 3.99 0 0 0 2.613.97c1.118 0 2.232-.468 3.025-1.383a4 4 0 0 0-.408-5.639c-4.742-4.1-7.464-10.03-7.464-16.262a21.51 21.51 0 0 1 7.464-16.266m122.757 16.266a61.8 61.8 0 0 0-15.677-41.15 4 4 0 0 1 .326-5.643c1.647-1.47 4.174-1.326 5.643.326 11.416 12.812 17.7 29.313 17.7 46.468a69.76 69.76 0 0 1-17.7 46.463 3.97 3.97 0 0 1-2.986 1.344c-.945 0-1.894-.338-2.657-1.015-1.647-1.465-1.794-3.992-.326-5.64 10.108-11.356 15.677-25.967 15.677-41.154"/><path d="M536.382-362.445c0-11.052-4.2-21.55-11.833-29.56a4 4 0 0 1 .139-5.652c1.6-1.52 4.13-1.46 5.652.134 9.054 9.5 14.04 21.962 14.04 35.077 0 13.107-4.984 25.564-14.04 35.073-.785.823-1.842 1.24-2.895 1.24a4.03 4.03 0 0 1-2.757-1.096c-1.6-1.526-1.66-4.057-.14-5.656a42.68 42.68 0 0 0 11.833-29.56M510.44-378.7a4 4 0 0 1 5.231-6.051c6.497 5.626 10.225 13.757 10.225 22.317s-3.727 16.687-10.225 22.313a3.99 3.99 0 0 1-2.613.97c-1.118 0-2.232-.468-3.025-1.383a4 4 0 0 1 .408-5.639c4.742-4.1 7.464-10.03 7.464-16.262a21.51 21.51 0 0 0-7.464-16.266"/></g></g></g></svg>