<svg xmlns="http://www.w3.org/2000/svg" width="1080" height="1080" viewBox="0 0 285.75 285.75"><g transform="matrix(10.722829 0 0 10.722829 -1478.3148 -1072.0591)"><g transform="matrix(.13909 0 0 .13909 278.27855 288.03589)"><rect transform="matrix(.591129 0 0 .591129 -727.00466 -916.66679)" ry="47.956" y="-736.529" x="-477.904" height="324.115" width="324.115" fill="#f9f9f9"/><rect width="191.593" height="191.593" x="-1009.507" y="-1352.05" ry="28.348" fill="#fff"/></g><g transform="matrix(.105887 0 0 .105887 148.47677 174.69371)"><path d="M-18.502-664.044c-19.123 0-34.62 15.498-34.62 34.62 0 9.708 4.003 18.463 10.436 24.75l-.192.163c-11.692 9.905-18.412 16.873-20.628 45.3 0 3.495 1.47 8.502 8.513 12.56 6.833 3.948 18.6 6.2 30.504 6.86a53.12 53.12 0 0 1 5.329-11.117c-12.042-.074-23.968-1.906-30.203-5.507-1.985-1.15-2.875-2.227-2.893-2.35 1.934-24.665 6.856-28.837 16.66-37.14l2.514-2.143c4.432 2.06 9.345 3.244 14.547 3.247a45.4 45.4 0 0 1 4.548-11.816c-1.463.332-2.93.54-4.527.54-12.87 0-23.346-10.475-23.346-23.345s10.475-23.345 23.346-23.345S4.83-642.294 4.83-629.423c0 1.857-.214 3.264-.612 4.95a45.4 45.4 0 0 1 11.892-4.343c0-.2.01-.402.01-.608 0-19.123-15.503-34.62-34.62-34.62zM-24.5-539.792l1.525.075-1.525-.075zm40.6-89.02c0 .132-.01.262-.013.392 0-.13.01-.26.013-.392zm-.023.65c-.01.117-.013.232-.02.347.01-.115.014-.23.02-.347zm-.034.58c-.022.327-.052.65-.085.973l.085-.973zm-.173 1.734l-.058.47.058-.47zm-37.266 86.192l.86.023-.86-.023zm91.144-124.388c19.123 0 34.62 15.498 34.62 34.62 0 9.708-4.003 18.463-10.436 24.75l.192.163c11.692 9.905 18.412 16.873 20.628 45.3 0 3.495-1.47 8.502-8.513 12.56-6.833 3.948-18.6 6.2-30.504 6.86a53.12 53.12 0 0 0-5.329-11.117c12.042-.074 23.968-1.906 30.203-5.507 1.985-1.15 2.875-2.227 2.893-2.35-1.934-24.665-6.856-28.837-16.66-37.14l-2.514-2.143c-4.432 2.06-9.345 3.244-14.547 3.247a45.4 45.4 0 0 0-4.547-11.816c1.463.332 2.93.54 4.527.54 12.87 0 23.346-10.475 23.346-23.345S82.642-652.77 69.77-652.77s-23.346 10.475-23.346 23.345c0 1.857.214 3.264.612 4.95a45.4 45.4 0 0 0-11.892-4.343c0-.2-.01-.402-.01-.608 0-19.123 15.503-34.62 34.62-34.62zm5.988 124.252l-1.525.075 1.525-.075zm-40.6-89.02c0 .132.01.262.013.392 0-.13-.01-.26-.013-.392zm.023.65c.01.117.013.232.02.347-.01-.115-.014-.23-.02-.347zm.034.58c.022.327.052.65.085.973a30.79 30.79 0 0 1-.085-.973zm.173 1.734l.058.47-.058-.47zm37.266 86.192l-.86.023.86-.023z" fill="#fc0"/><path d="M56.598-512.373c-5.576 3.225-15.73 5.034-26.442 5.43l10.22-12.493-9.894-22.67 8.18-11.247c.543-.22 1.055-.473 1.582-.716l2.587 2.204c9.798 8.304 14.72 12.476 16.636 36.696 0 .57-.88 1.646-2.87 2.796zm-61.908.005c-1.985-1.155-2.875-2.233-2.893-2.357 1.935-24.665 6.856-28.837 16.66-37.14l2.514-2.142 1.438.654 8.18 11.247-9.894 22.67L20.9-506.956c-10.626-.412-20.678-2.216-26.226-5.412zm54.196-73.013c0 12.87-10.47 23.345-23.346 23.345-12.87 0-23.345-10.475-23.345-23.345s10.474-23.346 23.345-23.346c12.877 0 23.346 10.475 23.346 23.346zm1.23 24.907l-.288-.248c6.376-6.28 10.333-15.002 10.333-24.66 0-19.123-15.498-34.62-34.62-34.62s-34.62 15.498-34.62 34.62c0 9.702 4.003 18.463 10.436 24.75l-.192.16c-11.693 9.91-18.413 16.88-20.628 45.304 0 3.495 1.47 8.502 8.51 12.56 8.21 4.74 22.4 7.11 36.594 7.11s28.387-2.368 36.6-7.11c7.03-4.065 8.506-9.07 8.49-13-2.197-27.985-8.912-34.953-20.606-44.864" fill="#28aa49"/></g></g></svg>