<svg xmlns="http://www.w3.org/2000/svg" viewBox="0 0 576 512"><path fill="#fff" d="M549.655 124.083c-6.28-23.65-24.787-42.276-48.284-48.597C458.78 64 288 64 288 64S117.22 64 74.63 75.486c-23.497 6.322-42.003 24.947-48.284 48.597-11.412 42.867-11.412 132.305-11.412 132.305s0 89.438 11.412 132.305c6.28 23.65 24.787 41.5 48.284 47.82C117.22 448 288 448 288 448s170.78 0 213.37-11.486c23.497-6.32 42.003-24.17 48.284-47.82 11.412-42.867 11.412-132.305 11.412-132.305s0-89.438-11.412-132.305zm-317.5 213.508V175.185l142.74 81.205-142.74 81.2z"/></svg>